<svg width="330" height="314" viewBox="0 0 330 314" fill="none" xmlns="http://www.w3.org/2000/svg">
<path d="M167.12 51.6571C176.113 45.5292 185.353 48.6993 194.366 51.8071C200.611 53.9025 207.011 56.1029 213.305 55.2181C214.743 55.053 216.169 54.6978 217.596 54.3425C219.607 53.8366 221.732 53.3619 223.878 53.2676C232.62 52.9951 239.187 60.6051 243.13 67.1176C244.485 69.3622 245.769 71.6494 246.94 73.9055C248.98 77.7109 251.103 81.6639 253.789 85.0859C258.645 91.3512 265.081 94.8089 270.914 94.2961L270.959 95.0568C264.828 95.5498 258.237 91.9871 253.185 85.5431C250.53 82.0047 248.365 77.9779 246.325 74.1725C245.154 71.9164 243.87 69.6292 242.514 67.3846C238.696 61.0934 232.325 53.6622 223.881 53.9544C221.806 54.0062 219.723 54.5547 217.712 55.0606C216.285 55.4158 214.859 55.7711 213.349 55.9787C206.871 56.8749 200.358 54.6434 194.041 52.5906C184.801 49.4204 176.097 46.5226 167.421 52.3638L167.12 51.6571Z" fill="#0C2340"/>
<path d="M94.2007 278.035C93.6624 277.076 93.4826 275.904 93.4989 274.91C93.504 273.727 93.8486 272.637 94.0801 271.516C94.2013 271.05 94.3226 270.585 94.4439 270.119C94.9977 267.528 94.9858 264.78 94.3172 262.226C92.5075 254.742 94.3769 249.894 97.4405 243.254C102.652 232.092 106.382 220.335 108.569 208.215C108.881 206.554 109.12 204.937 109.432 203.276C110.222 198.38 111.043 193.367 112.584 188.615C115.412 179.853 121.006 171.416 129.088 163.665C140.332 152.856 151.55 145.407 162.382 141.532C165.798 140.291 169.205 139.546 172.541 138.844C175.179 138.261 177.889 137.636 180.587 136.82C183.214 136.047 186.401 136.614 190.006 138.605C190.85 139.088 191.695 139.57 192.467 140.095C194.353 141.238 196.279 142.455 198.357 143.09C200.435 143.725 202.634 143.895 204.721 144.033C207.701 144.231 210.794 144.46 213.482 146.011C215.285 147.007 216.637 148.565 218.02 150.006C220.198 152.352 222.489 154.73 223.889 157.735C225.319 160.624 225.847 163.951 226.21 166.982C226.658 170.847 226.775 174.123 226.654 177.145C226.38 182.62 225.129 187.889 223.95 193.114C221.569 203.185 219.138 213.679 214.072 222.885L213.495 222.539C218.603 213.407 221.003 203.029 223.312 193.001C224.533 187.849 225.743 182.507 226.028 177.222C226.149 174.199 226.001 171.04 225.553 167.175C225.191 164.144 224.745 160.965 223.357 158.15C221.926 155.261 219.748 152.915 217.612 150.642C216.27 149.274 214.959 147.79 213.27 146.826C210.736 145.379 207.869 145.213 204.848 144.941C202.648 144.772 200.377 144.645 198.299 144.01C196.108 143.343 194.182 142.126 192.255 140.909C191.411 140.427 190.638 139.902 189.793 139.42C186.344 137.534 183.341 136.956 180.899 137.717C178.129 138.575 175.42 139.201 172.782 139.783C169.559 140.517 166.151 141.261 162.694 142.429C151.934 146.261 140.788 153.667 129.616 164.434C121.605 172.142 116.113 180.42 113.243 189.109C111.702 193.861 110.882 198.873 110.121 203.653C109.882 205.271 109.571 206.932 109.259 208.592C107.114 220.786 103.353 232.66 98.1416 243.821C95.0779 250.461 93.2995 254.96 95.0264 262.297C95.6647 264.967 95.7594 267.862 95.1752 270.57C95.054 271.036 94.9327 271.501 94.8115 271.967C94.58 273.088 94.2657 274.062 94.2192 275.171C94.1837 276.471 94.5816 278.202 95.8898 279C96.4667 279.346 97.1455 279.533 97.8961 279.677C98.6467 279.822 99.5105 279.997 100.129 280.417C101.169 281.078 101.677 282.154 102.257 283.187C102.423 283.482 102.63 283.851 102.795 284.146C104.897 287.719 110.623 291.106 116.905 287.473L117.278 288.137C111.211 291.642 104.831 289.135 102.191 284.603C102.026 284.308 101.819 283.939 101.653 283.644C101.186 282.642 100.648 281.683 99.8033 281.201C99.2265 280.855 98.5477 280.668 97.7971 280.523C97.0465 280.379 96.2958 280.234 95.5644 279.783C94.9654 279.057 94.4906 278.552 94.2007 278.035Z" fill="#0C2340"/>
<path d="M93.3698 214.191C94.158 211.166 94.4117 210.425 94.6653 209.684C94.9189 208.943 95.1726 208.202 96.0022 205.25C100.034 189.772 103.369 176.97 106.564 164.941C108.151 159.079 110.874 156.773 115.081 153.193L115.296 153.065C121.131 148.125 123.383 141.573 125.655 134.715C127.075 130.429 128.597 125.984 131.035 121.978C132.698 119.318 134.416 117.609 136.447 116.797C139.852 115.365 144.215 117.004 148.465 118.612C154.536 120.909 160.227 123.039 163.716 117.327C165.277 114.826 165.13 111.667 165.024 108.582C165.032 108.085 164.999 107.515 165.007 107.018C164.973 103.89 165.237 100.782 165.912 97.7252C166.264 96.1385 166.791 94.3502 168.101 93.2769C170.518 91.4483 174.028 93.1019 176.433 95.5107C178.92 98.0672 180.874 101.038 182.859 103.893C184.038 105.652 185.3 107.559 186.622 109.233C190.351 114.003 194.227 116.817 198.247 117.676C202.042 118.472 205.077 117.064 208.255 115.57C209.988 114.737 211.762 113.979 213.66 113.442C218.34 112.237 223.862 113.385 228.427 116.576C233.961 120.471 237.972 126.254 239.168 132.135C240.44 138.66 237.392 144.306 234.447 149.793C234.111 150.386 233.744 151.096 233.407 151.689C229.932 158.278 230.517 165.113 231.587 172.642C232.467 178.809 231.803 184.614 229.776 188.67L229.128 188.367C231.053 184.469 231.686 178.781 230.817 172.804C229.736 165.084 229.223 158.207 232.759 151.386C233.095 150.793 233.462 150.083 233.798 149.49C236.713 144.119 239.731 138.589 238.399 132.297C237.285 126.564 233.398 121.002 227.947 117.255C223.578 114.242 218.241 113.083 213.746 114.276C211.848 114.813 210.145 115.529 208.413 116.361C205.162 117.898 201.984 119.392 197.963 118.533C193.758 117.686 189.728 114.767 185.916 109.849C184.552 108.101 183.332 106.268 182.112 104.435C180.198 101.538 178.172 98.6095 175.798 96.0843C173.59 93.8541 170.532 92.3253 168.433 93.8672C167.296 94.7389 166.8 96.4108 166.477 97.8811C165.874 100.896 165.569 103.93 165.675 107.015C165.666 107.512 165.7 108.082 165.692 108.579C165.767 111.78 165.884 115.056 164.221 117.716C160.426 123.904 154.128 121.545 148.098 119.322C144.003 117.819 139.753 116.211 136.563 117.515C134.676 118.242 133.029 119.909 131.468 122.41C129.102 126.373 127.61 130.701 126.19 134.988C123.908 141.655 121.606 148.63 115.556 153.698L115.341 153.826C111.134 157.406 108.513 159.553 107.058 165.139C103.863 177.169 100.528 189.97 96.4962 205.449C95.708 208.474 95.4544 209.215 95.2007 209.956C94.9471 210.697 94.6934 211.438 93.8638 214.39L93.3698 214.191Z" fill="#0C2340"/>
<path d="M93.7557 274.856C94.1439 271.969 94.1098 268.842 93.1018 266.194C92.5412 264.854 91.8371 263.6 91.1634 262.229C90.418 260.901 89.8463 259.372 89.5726 257.862C89.2576 256.278 89.1991 254.641 89.4801 253.097C89.7197 251.479 90.2684 250.071 90.7039 248.632C91.6881 245.784 92.7855 242.969 93.9243 240.226C95.063 237.484 96.2433 234.816 97.1558 232.011C98.1097 229.281 98.7656 226.53 99.2669 223.675C100.27 217.964 100.593 212.066 100.876 206.094C101.038 203.145 101.158 200.122 101.463 197.088C101.697 194.096 102.002 191.062 102.564 187.974C102.845 186.43 103.126 184.886 103.592 183.33C103.804 182.516 104.058 181.775 104.312 181.034C104.637 180.25 104.962 179.467 105.359 178.641C106.887 175.569 109.157 173.139 111.295 170.984C113.433 168.829 115.51 166.907 117.207 164.818C118.076 163.81 118.718 162.739 119.391 161.553C120.064 160.366 120.696 159.106 121.358 157.729C123.914 152.571 126.056 146.675 130.359 141.562C132.516 139.101 135.322 136.943 138.285 135.577C141.207 134.137 144.245 133.415 147.098 132.704C152.887 131.431 158.358 130.444 162.372 127.372C164.257 125.958 165.87 123.721 167.699 121.356C169.528 118.991 171.561 116.308 174.758 114.508C176.265 113.613 178.265 112.917 180.434 113.203C182.561 113.415 184.333 114.527 185.664 115.704C186.994 116.882 187.955 118.082 188.915 119.282L190.309 120.914L191.775 122.503C193.799 124.744 195.554 126.85 197.602 127.601C198.549 127.925 199.627 127.973 200.541 127.725C201.526 127.435 202.632 126.68 203.769 125.808C204.905 124.937 206.072 123.949 207.62 123.128C209.096 122.35 211.179 121.801 213.103 122.331C216.693 123.446 218.606 126.343 220.676 127.475C221.717 128.136 222.961 128.479 224.266 128.589C224.863 128.628 225.459 128.668 226.085 128.591C226.711 128.514 227.368 128.321 228.251 128.19C229.134 128.059 230.224 128.297 230.955 128.748C231.758 129.157 232.46 129.724 232.976 130.303C234.091 131.608 234.806 133.053 235.265 134.551C236.182 137.548 236.299 140.823 235.325 143.861C234.311 146.824 232.339 149.274 229.952 150.986L229.715 150.734C231.947 148.917 233.806 146.435 234.605 143.6C235.405 140.764 235.186 137.648 234.249 134.957C233.76 133.575 233.015 132.247 232.065 131.237C231.044 130.27 229.736 129.473 228.34 129.711C227.642 129.831 226.985 130.024 226.215 130.186C225.517 130.306 224.778 130.351 223.997 130.323C222.578 130.182 221.036 129.819 219.769 129.095C218.43 128.415 217.368 127.373 216.203 126.491C215.11 125.566 213.873 124.727 212.516 124.352C211.158 123.978 209.731 124.333 208.47 124.984C207.21 125.634 206.156 126.653 204.947 127.568C203.811 128.439 202.603 129.354 201.187 129.899C199.772 130.445 198.21 130.388 196.811 129.94C193.93 128.897 192.008 126.496 189.955 124.371C187.829 122.289 186.164 119.834 183.937 117.91C182.844 116.985 181.577 116.262 180.159 116.121C178.74 115.979 177.355 116.408 176.136 117.132C171.073 120.04 168.912 126.243 164.192 129.931C159.358 133.589 153.404 134.567 147.841 135.903C145.06 136.571 142.248 137.355 139.613 138.624C137.05 139.851 134.705 141.637 132.794 143.855C128.971 148.289 126.734 153.847 124.117 159.238C122.824 161.875 121.387 164.598 119.476 166.815C117.606 169.106 115.343 171.04 113.277 173.152C111.17 175.191 109.258 177.408 107.852 180.014C106.517 182.577 105.8 185.56 105.227 188.459C104.236 194.36 103.799 200.226 103.332 206.21C102.864 212.193 102.397 218.176 101.251 223.972C100.678 226.87 99.92 229.78 98.8226 232.596C97.797 235.369 96.5451 238.08 95.3345 240.865C94.0826 243.575 92.9024 246.244 91.8768 249.017C91.3998 250.382 90.8511 251.79 90.6005 253.218C90.3498 254.646 90.3254 256.136 90.5577 257.572C90.9504 260.487 92.7282 262.973 93.7474 265.81C94.623 268.734 94.5439 271.83 94.0123 274.802L93.7557 274.856Z" fill="#FFF666"/>
<path d="M225.137 203.919C227.873 199.933 230.836 196.01 234.16 192.56C237.442 189.037 241.188 185.828 245.307 183.284C247.346 181.975 249.592 181.034 251.559 179.768C253.526 178.501 255.132 176.761 256.541 174.842C257.951 172.923 259.277 170.856 260.913 168.999C262.507 167.069 264.535 165.569 266.574 164.26C268.613 162.951 270.776 161.864 272.701 160.523C274.668 159.257 276.511 157.769 277.808 155.819C279.104 153.868 279.823 151.572 279.875 149.279C279.999 146.943 279.598 144.525 278.982 142.234C278.366 139.944 277.493 137.708 276.579 135.398C275.706 133.161 274.792 130.851 274.021 128.456C273.292 126.135 272.809 123.569 272.849 121.086C272.848 118.528 273.485 116.084 274.276 113.745C274.996 111.449 275.9 109.141 276.393 106.782C276.815 104.466 276.897 102.057 276.209 99.8089C275.886 98.722 275.306 97.689 274.552 96.8577C273.799 96.0263 272.872 95.3965 271.812 95.0421C269.692 94.3332 267.259 94.598 264.855 94.7463C263.633 94.7837 262.452 94.8947 261.218 94.7419C259.985 94.589 258.782 94.3198 257.669 93.7014C255.415 92.581 253.711 90.7396 252.193 88.8867C249.259 85.0219 246.713 80.8278 243.82 77.0369C240.927 73.2459 237.562 69.6368 233.453 67.2568C231.413 66.0087 229.211 65.1522 226.918 64.6449C224.624 64.1376 222.251 64.1696 219.942 64.6558C217.674 65.2156 215.511 66.3034 213.419 67.3486C211.298 68.5101 209.176 69.6717 206.919 70.4217C204.662 71.1717 202.126 71.5955 199.72 71.057C198.517 70.7878 197.333 70.212 196.364 69.5084C195.354 68.7311 194.559 67.8259 193.794 66.8044C190.788 62.9823 187.997 59.0323 184.367 55.9739C182.532 54.4078 180.564 53.117 178.475 52.2918C176.273 51.4353 174.021 51.0018 171.731 51.1814C170.621 51.2499 169.451 51.5511 168.478 52.0311C167.975 52.3293 167.39 52.4799 167.001 52.8093C166.786 52.9371 166.499 53.1075 166.284 53.2353L165.608 53.735C163.837 55.1803 162.469 57.1732 161.327 59.2284C159.014 63.4554 157.616 68.1219 155.385 72.4964C153.195 76.9447 150.388 80.9731 147.188 84.644C143.988 88.3149 140.2 91.4496 136.164 94.1416C134.125 95.4507 132.004 96.6123 129.841 97.7001C127.636 98.714 125.349 99.5805 123.05 100.257C120.722 101.049 118.371 101.462 116.144 102.095C113.918 102.729 111.785 103.7 110.127 105.177C108.469 106.653 107.255 108.751 106.608 111.005C105.919 113.185 105.652 115.606 105.641 117.973C105.662 122.781 106.72 127.563 106.866 132.593C106.902 133.85 106.825 135.076 106.789 136.376L106.66 137.338C106.641 137.645 106.55 137.994 106.489 138.227L106.117 140.12C105.439 142.49 104.576 144.872 103.404 147.043C101.173 151.418 98.2108 155.341 95.4333 159.253C92.6558 163.165 89.9197 167.151 88.1413 171.65C87.8765 172.201 87.7249 172.783 87.5733 173.365C87.4218 173.947 87.157 174.497 87.0054 175.079L86.6638 176.856C86.6446 177.163 86.5122 177.438 86.493 177.745L86.4354 178.664C86.2402 181.043 86.6411 183.461 87.1137 185.836C88.2437 190.576 89.7739 195.176 91.2323 199.819C91.9615 202.141 92.619 204.505 93.0916 206.88C93.5642 209.256 93.9651 211.674 94.0376 214.188L93.8527 214.2C93.7499 211.801 93.349 209.383 92.7633 206.977C92.1775 204.57 91.4897 202.322 90.7191 199.927C89.1889 195.327 87.4739 190.738 86.3024 185.925C85.7167 183.518 85.3875 181.057 85.4999 178.531L85.5575 177.612C85.5768 177.305 85.6677 176.956 85.7283 176.723L86.0285 174.873C86.1801 174.291 86.4034 173.666 86.555 173.084C86.7066 172.502 86.9299 171.878 87.123 171.37C88.8903 166.68 91.585 162.621 94.3928 158.592C97.1289 154.607 100.02 150.726 102.179 146.394C103.279 144.265 104.112 142 104.718 139.672L105.06 137.895C105.079 137.589 105.211 137.313 105.231 137.007L105.33 136.161C105.448 135.008 105.412 133.751 105.417 132.568C105.211 127.771 104.153 122.989 104.079 117.917C104.12 115.433 104.304 112.865 105.126 110.409C105.876 107.997 107.15 105.666 109.053 103.945C110.915 102.151 113.346 101.199 115.644 100.523C118.014 99.8043 120.294 99.4345 122.551 98.6845C124.777 98.0508 126.951 97.1532 129.156 96.1392C131.247 95.0941 133.338 94.0489 135.377 92.7398C139.383 90.1642 143.027 87.1147 146.197 83.5601C149.366 80.0056 152.144 76.0936 154.303 71.7617C156.504 67.5036 157.86 62.7632 160.317 58.4511C161.531 56.3532 163.001 54.2013 164.987 52.6283L165.735 52.0859C166.022 51.9155 166.309 51.7452 166.524 51.6174C167.098 51.2766 167.641 51.0522 168.143 50.754C169.302 50.2626 170.513 50.0351 171.766 49.8815C174.241 49.6905 176.719 50.1864 178.963 51.1166C181.207 52.0468 183.329 53.4425 185.093 55.0512C188.734 58.2998 191.566 62.3235 194.5 66.1883C195.224 67.136 196.019 68.0412 196.916 68.7873C197.813 69.5335 198.842 70.0043 199.974 70.3161C202.195 70.866 204.588 70.5275 206.844 69.7774C211.287 68.32 215.218 65.1001 219.98 64.0427C222.361 63.514 224.776 63.5558 227.141 64.0204C229.506 64.4851 231.75 65.4154 233.831 66.7373C237.982 69.191 241.418 72.7576 244.353 76.6223C245.841 78.5916 247.215 80.5297 248.632 82.5415C250.048 84.5534 251.351 86.534 252.797 88.4295C254.316 90.2824 256.049 92.0075 258.149 93.0229C260.25 94.0383 262.623 94.0063 264.954 93.9005C267.286 93.7947 269.75 93.4136 272.167 94.1422C273.34 94.5278 274.494 95.22 275.402 96.1563C276.31 97.0927 276.901 98.3157 277.266 99.4765C278.078 101.945 278.079 104.503 277.597 107.052C277.145 109.484 276.282 111.866 275.562 114.162C274.843 116.459 274.236 118.786 274.226 121.153C274.216 123.52 274.688 125.896 275.376 128.144C276.722 132.755 279.124 137.035 280.336 141.922C280.922 144.328 281.364 146.82 281.18 149.389C281.104 150.615 280.883 151.926 280.508 153.133C280.133 154.339 279.532 155.483 278.818 156.596C277.306 158.674 275.433 160.278 273.394 161.587C271.356 162.896 269.234 164.058 267.225 165.251C265.258 166.517 263.333 167.858 261.769 169.672C260.205 171.486 258.837 173.479 257.355 175.44C255.874 177.402 254.125 179.228 252.087 180.537C250.048 181.846 247.802 182.786 245.793 183.979C241.705 186.407 237.947 189.425 234.623 192.875C231.299 196.324 228.254 200.1 225.405 204.055L225.137 203.919Z" fill="#0C2340"/>
<path d="M111.48 258.723L112.826 256.35C113.336 255.555 113.887 254.834 114.48 254.187C115.697 252.776 117.079 251.66 118.533 250.501C121.41 248.301 124.578 246.617 127.734 244.742L132.396 241.973L134.692 240.61C135.481 240.142 136.311 239.747 137.194 239.616C138.149 239.443 139.095 239.766 139.827 240.217C140.671 240.699 141.301 241.309 141.9 242.036C143.026 243.531 143.722 245.282 144.018 247.172C144.314 249.062 144.198 250.901 143.97 252.71C143.67 254.56 143.328 256.337 142.915 258.157C142.501 259.976 142.088 261.795 141.407 263.479C140.767 265.236 139.86 266.857 138.685 268.342C136.293 271.237 133.024 273.08 129.65 274.396C126.275 275.711 122.724 276.541 119.328 277.476C117.614 278.001 115.901 278.527 114.27 279.2C112.64 279.873 110.979 280.663 109.111 281.084C107.314 281.462 105.187 281.25 103.528 280.169C102.714 279.57 102.032 278.696 101.679 277.726C101.325 276.755 101.372 275.645 101.501 274.683C101.832 272.716 102.811 271.053 103.718 269.432L106.481 264.643L109.245 259.854C110.152 258.233 111.214 256.717 112.091 255.212C113.04 253.665 113.762 252.055 114.33 250.341C114.826 248.669 115.055 246.861 115.355 245.01C115.584 243.202 115.842 241.278 116.369 239.49C116.895 237.701 117.607 235.902 118.514 234.281C120.257 231.081 121.959 227.808 123.928 224.671C125.897 221.534 127.949 218.545 130.269 215.692C132.589 212.839 135.146 210.238 137.94 207.89C140.735 205.542 143.612 203.341 146.81 201.541C150.049 199.814 153.578 198.604 157.245 198.492C159.064 198.494 160.893 198.686 162.632 199.228C164.37 199.769 166.09 200.617 167.492 201.752C168.966 202.844 170.133 204.414 170.973 206.079C171.812 207.745 172.221 209.667 172.476 211.483C172.984 215.116 173.093 218.888 172.678 222.578C172.149 226.236 171.066 229.929 168.787 232.856C166.509 235.783 163.477 237.879 160.754 240.184C159.372 241.3 158.031 242.49 156.815 243.901C155.67 245.269 154.763 246.89 154.082 248.574C153.401 250.257 152.874 252.045 152.306 253.76C151.667 255.517 150.914 257.243 149.924 258.716C147.955 261.853 145.243 264.349 142.252 266.518C139.334 268.645 136.136 270.446 132.927 272.056C126.51 275.277 119.927 278.202 113.084 280.495C111.371 281.021 109.533 281.325 107.715 281.323C106.82 281.263 105.885 281.13 104.98 280.881C104.075 280.631 103.26 280.033 102.59 279.349C101.919 278.665 101.422 277.78 101.182 276.84C100.941 275.901 100.958 274.908 101.087 273.945C101.346 272.021 102.212 270.326 103.006 268.674C103.913 267.053 104.903 265.58 105.811 263.959C106.759 262.412 107.595 260.833 108.502 259.212C110.204 255.939 111.721 252.678 113.083 249.311C114.445 245.944 115.765 242.504 116.788 239.044C117.883 235.541 118.751 231.976 119.249 228.434C119.348 227.588 119.221 226.68 119.094 225.771C119.038 224.821 119.054 223.827 119.184 222.865C119.484 221.014 120.01 219.226 120.352 217.449L122.504 206.629C123.259 203.033 123.901 199.405 124.84 195.797C125.78 192.19 127.173 188.707 129.214 185.527C133.224 179.211 139.1 174.344 145.506 170.933C151.984 167.48 158.993 165.482 166.023 163.865C169.502 163.077 173.065 162.438 176.627 161.798C178.393 161.536 180.272 161.306 182.132 161.382C183.992 161.458 185.874 161.914 187.593 162.762C191.062 164.342 193.787 167.151 195.752 170.312C196.735 171.893 197.544 173.675 198.168 175.468C198.793 177.262 199.16 179.11 199.456 181C199.935 184.749 199.858 188.532 199.515 192.18C199.212 195.901 198.57 199.528 198.042 203.187C197.4 206.814 196.686 210.484 195.52 214.03C194.354 217.575 192.849 221.027 190.993 224.195C189.178 227.437 187.054 230.469 184.847 233.353C182.682 236.312 180.321 239.091 177.847 241.839C172.97 247.293 167.577 252.168 161.863 256.643C150.354 265.446 137.356 272.279 123.607 276.41C120.18 277.461 116.629 278.291 113.191 279.152C111.436 279.604 109.671 279.866 107.852 279.864C106.958 279.804 106.023 279.671 105.189 279.379C104.356 279.087 103.511 278.605 102.912 277.879C102.313 277.152 102.031 276.139 102.089 275.219C102.147 274.3 102.389 273.369 102.673 272.511C103.354 270.828 104.375 269.238 105.437 267.722C106.498 266.206 107.643 264.838 108.664 263.248C109.778 261.996 110.572 260.344 111.48 258.723ZM111.634 258.828C110.799 260.406 110.004 262.059 108.984 263.648C107.922 265.164 106.819 266.607 105.829 268.08C104.767 269.596 103.776 271.069 103.137 272.826C102.853 273.684 102.569 274.541 102.511 275.46C102.454 276.38 102.766 277.277 103.252 277.972C103.809 278.625 104.582 279.15 105.415 279.442C106.249 279.734 107.113 279.909 107.965 279.895C109.712 279.94 111.508 279.562 113.191 279.152C114.946 278.7 116.671 278.365 118.384 277.839C120.139 277.388 121.852 276.862 123.566 276.336C137.191 271.984 150.075 265.119 161.388 256.138C167.03 251.706 172.34 246.683 177.146 241.272C179.548 238.566 181.796 235.756 183.961 232.797C186.127 229.839 188.107 226.892 189.891 223.767C191.676 220.641 193.151 217.306 194.174 213.846C195.268 210.343 196.064 206.82 196.635 203.236C197.205 199.651 197.805 195.949 198.077 192.345C198.421 188.697 198.508 185.104 197.999 181.471C197.745 179.655 197.347 177.924 196.805 176.278C196.223 174.558 195.425 172.966 194.525 171.533C192.642 168.519 190.083 166.005 186.953 164.519C185.389 163.776 183.733 163.382 182.058 163.295C180.383 163.207 178.576 163.395 176.851 163.731C173.361 164.328 169.84 165.041 166.319 165.755C159.319 167.256 152.495 169.242 146.161 172.61C139.898 175.936 134.196 180.601 130.318 186.642C128.379 189.663 127.017 193.029 126.107 196.521C125.126 200.055 124.484 203.682 123.729 207.279L121.577 218.099C121.236 219.876 120.709 221.664 120.481 223.472C120.31 224.36 120.324 225.237 120.338 226.114C120.352 226.991 120.521 227.973 120.392 228.936C119.304 236.369 116.776 243.281 114.021 250.131C112.587 253.54 110.999 256.844 109.297 260.117C108.39 261.738 107.554 263.317 106.606 264.864C105.657 266.411 104.636 268.001 103.759 269.505C102.924 271.084 102.13 272.736 101.86 274.47C101.689 275.359 101.703 276.236 101.974 277.059C102.173 277.924 102.587 278.662 103.216 279.272C104.331 280.577 106.1 281.002 107.847 281.047C109.594 281.092 111.318 280.757 113.073 280.305C119.844 278.055 126.468 275.203 132.886 271.982C136.095 270.372 139.22 268.614 142.181 266.561C145.099 264.434 147.739 261.981 149.75 258.918C150.699 257.371 151.493 255.718 152.061 254.004C152.629 252.289 153.155 250.501 153.836 248.818C154.476 247.061 155.383 245.44 156.6 244.029C157.816 242.618 159.157 241.428 160.569 240.196C163.405 237.921 166.324 235.795 168.531 232.91C170.737 230.026 171.79 226.449 172.247 222.833C172.704 219.217 172.452 215.53 171.943 211.898C171.689 210.081 171.178 208.319 170.38 206.727C169.582 205.135 168.425 203.756 167.064 202.695C165.704 201.634 164.097 200.817 162.4 200.349C160.775 199.839 158.945 199.646 157.24 199.675C153.758 199.776 150.342 201.017 147.288 202.732C144.162 204.49 141.356 206.648 138.675 209.028C135.993 211.407 133.436 214.008 131.147 216.745C128.857 219.481 126.805 222.471 124.908 225.565C123.01 228.659 121.267 231.859 119.524 235.058C118.689 236.636 117.966 238.246 117.511 239.992C117.057 241.737 116.787 243.471 116.558 245.279C116.33 247.088 116.071 249.012 115.473 250.843C114.875 252.674 114.08 254.326 113.101 255.989C112.194 257.61 111.132 259.126 110.183 260.673L107.378 265.389L104.574 270.104C103.625 271.651 102.831 273.303 102.519 274.964C102.42 275.81 102.393 276.613 102.622 277.362C102.851 278.111 103.337 278.807 103.956 279.226C105.233 280.14 107.104 280.406 108.716 280.039C110.369 279.746 112.03 278.957 113.66 278.284C115.362 277.568 117.076 277.042 118.831 276.59C122.299 275.613 125.82 274.899 129.122 273.627C132.425 272.354 135.623 270.554 137.954 267.891C139.098 266.522 140.047 264.975 140.615 263.26C141.296 261.577 141.751 259.831 142.164 258.012C142.961 254.489 143.931 250.765 143.463 247.206C143.209 245.39 142.626 243.67 141.541 242.249C140.984 241.596 140.313 240.912 139.581 240.461C138.85 240.01 137.945 239.761 137.134 239.849C136.251 239.98 135.462 240.448 134.703 240.8L132.407 242.164L127.745 244.932C124.66 246.764 121.493 248.448 118.574 250.575C117.151 251.617 115.738 252.849 114.552 254.144C113.959 254.791 113.407 255.512 112.897 256.307L111.634 258.828Z" fill="#0C2340"/>
<path d="M87.8972 293.386C88.034 289.37 88.1404 285.47 87.9073 281.477C87.7549 279.502 87.6026 277.526 87.3067 275.636C86.9694 273.672 86.4887 271.793 86.008 269.914C85.0051 266.083 84.0023 262.252 83.7692 258.258C83.5362 254.265 83.8992 250.311 84.1491 246.326C84.7316 238.504 84.0504 230.645 83.1842 222.797L80.801 199.127C80.048 191.311 79.0273 183.358 79.7837 175.334C80.1467 171.381 81.0229 167.319 82.6608 163.592C84.2573 159.791 86.6681 156.588 88.6262 153.261C89.6053 151.598 90.5126 149.977 91.1826 148.103C91.8222 146.346 92.3073 144.484 92.5661 142.56C93.1251 138.785 93.1183 134.854 92.9984 130.891C92.8786 126.929 92.7587 122.967 93.0803 118.94C93.2976 116.941 93.5867 114.901 94.1021 112.922C94.6175 110.944 95.4724 109.059 96.4818 107.279C98.6137 103.75 101.571 101.01 104.694 98.5656C107.817 96.1208 111.034 94.0137 114.013 91.6542C120.044 86.8924 125.464 81.2141 129.957 74.906C132.224 71.7889 134.254 68.4192 136.284 65.0495C138.356 61.7536 140.499 58.4151 142.992 55.3603C145.444 52.2318 148.288 49.4607 151.381 47.1323C152.948 46.005 154.628 44.9089 156.319 44.0029C158.011 43.097 159.774 42.1484 161.506 41.3162C164.971 39.6519 168.674 38.24 172.44 37.2823C176.248 36.3983 180.12 35.9685 184.005 36.4157C185.948 36.6392 187.86 36.9792 189.712 37.5519C191.564 38.1246 193.355 38.9301 195.146 39.7356C198.687 41.2728 202.288 42.5772 206.041 43.2997C207.882 43.6822 209.783 43.832 211.673 43.7917C213.605 43.8251 215.484 43.5946 217.404 43.4378C219.325 43.2811 221.287 43.1982 223.271 43.4955C225.255 43.7929 227.076 44.482 228.868 45.2875C232.45 46.8984 235.726 48.9863 239.256 50.3333C242.827 51.7541 246.519 52.7094 250.264 53.9286C253.896 55.1166 257.652 56.526 260.939 58.804C262.598 59.8848 264.052 61.2836 265.333 62.884C266.614 64.4843 267.608 66.2551 268.417 68.0372C270.077 71.6753 271.193 75.5379 272.554 79.1562C273.916 82.7745 275.892 86.1258 278.156 89.3068C280.42 92.4877 282.827 95.5835 285.162 98.7218C287.426 101.903 289.629 105.316 291.187 109.114C291.966 111.012 292.488 112.965 292.795 115.045C293.102 117.125 293.11 119.186 293.006 121.215C292.83 123.287 292.5 125.254 292.169 127.221L291.065 133.091L288.885 144.715L287.781 150.584C287.409 152.478 287.078 154.445 286.604 156.497C286.089 158.475 285.389 160.465 284.194 162.257C283 164.048 281.414 165.482 279.734 166.578C276.456 168.918 272.908 170.434 270.083 172.899C267.33 175.321 265.3 178.691 262.467 181.652C261.107 183.148 259.48 184.508 257.604 185.425C255.769 186.417 253.871 186.954 251.972 187.491C250.074 188.028 248.206 188.448 246.462 189.09C245.549 189.338 244.718 189.733 243.847 190.054C243.016 190.448 242.144 190.769 241.283 191.28C237.931 192.976 234.756 195.157 231.972 197.695C229.189 200.234 226.654 203.215 224.613 206.394C222.459 209.542 221.191 213.247 219.059 216.775C218.049 218.555 216.772 220.199 215.258 221.59C213.743 222.982 212.105 224.151 210.538 225.279L208.151 226.991C207.793 227.204 207.332 227.576 206.901 227.832C206.471 228.087 206.041 228.343 205.497 228.567C203.693 229.442 201.794 229.979 200.134 230.769C199.303 231.163 198.514 231.632 197.838 232.132L196.702 233.003L195.606 233.949C194.235 235.255 192.906 236.635 191.731 238.12C189.267 241.058 187.238 244.428 185.279 247.755C181.405 254.483 177.82 261.727 172.452 267.669C169.803 270.619 166.692 273.254 163.083 275.004C159.474 276.753 155.666 277.637 151.972 278.552C148.236 279.394 144.356 280.32 140.38 280.222C138.448 280.189 136.589 280.113 134.709 280.343C132.83 280.574 130.993 280.878 129.249 281.52C127.505 282.162 125.814 283.068 124.164 284.048C122.514 285.028 120.864 286.007 119.101 286.956C115.678 288.694 112.502 290.875 109.089 292.803C107.44 293.783 105.677 294.731 103.944 295.564C102.211 296.396 100.365 297.197 98.4147 297.47C97.9014 297.578 97.4185 297.57 96.8942 297.487C96.3699 297.405 95.9173 297.281 95.4647 297.156C94.4878 296.949 93.5523 296.816 92.6472 296.566C90.9803 295.982 89.0043 295.188 87.8972 293.386ZM88.1538 293.332C88.3609 293.701 88.7529 294.059 89.1034 294.342C89.454 294.626 89.8762 294.867 90.2985 295.108C91.143 295.591 92.0482 295.84 93.0251 296.047C93.9302 296.296 94.9375 296.387 95.8012 296.562C96.2538 296.687 96.7781 296.769 97.1893 296.82C97.6004 296.871 98.0833 296.88 98.5966 296.772C100.434 296.467 102.239 295.593 103.9 294.803C105.632 293.971 107.282 292.991 108.932 292.011C110.582 291.032 112.19 289.978 113.87 288.882C114.731 288.371 115.479 287.828 116.339 287.317L118.891 285.9C120.541 284.92 122.191 283.941 123.913 282.918C125.562 281.938 127.325 280.99 129.1 280.232C130.987 279.504 132.855 279.084 134.847 278.884C136.839 278.685 138.771 278.718 140.661 278.678C144.411 278.714 148.106 277.799 151.872 276.841C155.566 275.926 159.333 274.968 162.685 273.272C166.037 271.577 168.975 269.144 171.438 266.205C173.943 263.34 176.128 260.076 178.086 256.749C180.044 253.422 181.878 249.873 183.794 246.472C185.783 243.029 187.813 239.659 190.337 236.488C191.583 234.961 192.943 233.464 194.386 232.116L195.553 231.128L196.761 230.213C197.539 229.555 198.513 229.075 199.415 228.637C201.22 227.762 203.077 227.152 204.738 226.362C205.096 226.149 205.568 225.967 205.927 225.754C206.285 225.541 206.644 225.328 207.033 224.999C207.852 224.414 208.6 223.872 209.419 223.287C210.986 222.159 212.553 221.032 213.894 219.842C215.265 218.536 216.368 217.094 217.317 215.547C219.245 212.336 220.657 208.547 222.871 205.166C224.973 201.753 227.652 198.687 230.609 195.947C233.607 193.281 236.885 190.941 240.422 189.234C243.876 187.38 247.816 186.221 251.511 185.305C253.337 184.811 255.123 184.243 256.742 183.379C258.362 182.516 259.744 181.4 261.002 180.063C263.589 177.346 265.691 173.934 268.761 171.225C271.945 168.547 275.564 166.988 278.555 164.818C280.092 163.808 281.463 162.502 282.453 161.028C283.443 159.555 284.083 157.798 284.568 155.936C285.053 154.074 285.383 152.107 285.755 150.213L286.901 144.417L289.152 132.751C289.855 128.891 290.742 125.019 291.075 121.182C291.262 119.3 291.222 117.356 290.927 115.466C290.631 113.575 290.191 111.77 289.454 109.946C288.021 106.37 286.014 103.135 283.75 99.9541C281.486 96.7731 279.079 93.6774 276.887 90.4539C274.654 87.1565 272.636 83.7314 271.191 79.9655C269.747 76.1996 268.785 72.4421 267.167 68.8778C266.358 67.0956 265.447 65.4724 264.249 64.0196C263.266 62.4391 261.853 61.1141 260.307 60.0644C257.247 57.8487 253.604 56.4706 250.044 55.2399C246.412 54.0519 242.637 52.9491 239.066 51.5283C235.381 50.0763 232.135 47.872 228.666 46.2923C226.947 45.4442 225.167 44.8289 223.296 44.5627C221.497 44.2539 219.535 44.3369 217.614 44.4936C215.694 44.6503 213.773 44.8071 211.842 44.7737C209.91 44.7402 207.937 44.633 206.055 44.1767C202.23 43.4968 198.587 42.1186 195.005 40.5076C193.214 39.7022 191.536 38.9279 189.684 38.3551C187.833 37.7824 185.992 37.3999 184.091 37.2501C180.318 36.8341 176.447 37.2639 172.711 38.1053C169.017 39.0204 165.427 40.4635 161.962 42.1278C158.538 43.866 155.042 45.6467 151.98 47.8587C148.887 50.1871 146.115 52.9156 143.806 55.9589C141.426 59.0449 139.355 62.3408 137.325 65.7105C135.295 69.0802 133.378 72.481 131.081 75.7146C126.557 82.139 121.148 88.0075 115.056 93.002C112.047 95.478 108.8 97.7014 105.82 100.061C102.841 102.421 100.068 105.149 98.1405 108.36C97.1614 110.023 96.4804 111.707 95.9953 113.569C95.5102 115.431 95.21 117.281 95.0644 119.237C94.7317 123.074 94.9233 126.994 95.0432 130.956C95.1631 134.918 95.2112 138.923 94.633 143.005C94.3439 145.045 93.8285 147.024 93.0869 148.94C92.3452 150.856 91.3358 152.636 90.3981 154.373C88.2965 157.786 86.0292 160.903 84.4519 164.397C82.8746 167.892 82.059 171.721 81.7263 175.558C80.9175 183.318 81.8968 191.197 82.578 199.056L84.735 222.664C85.4163 230.523 86.0672 238.498 85.3826 246.479C85.0913 250.39 84.7283 254.344 84.8068 258.233C84.8853 262.121 85.8881 265.952 86.8192 269.826C87.2282 271.748 87.7504 273.7 87.9745 275.633C88.3117 277.597 88.4641 279.572 88.5448 281.59C88.5819 285.405 88.3734 289.464 88.1538 293.332Z" fill="#0C2340"/>
<path d="M84.802 242.889C84.5528 239.889 84.8581 236.855 85.8009 233.934C86.7437 231.013 88.2634 228.438 89.5567 225.801C90.8501 223.164 91.9888 220.422 92.7468 217.512C93.433 214.646 93.7797 211.685 94.0134 208.694C94.247 205.702 94.2957 202.722 93.7181 199.818C93.1405 196.915 91.9062 194.205 90.8871 191.367C90.3982 189.985 89.9397 188.486 89.666 186.977C89.3924 185.467 89.3036 183.945 89.3583 182.339C89.4544 180.806 89.6636 179.305 90.1295 177.749C90.6368 176.268 91.4117 174.922 92.3413 173.681C94.0872 171.169 96.0816 169.099 97.6013 166.524C99.0906 164.066 100.301 161.281 101.44 158.539L104.928 150.27L106.657 146.194C107.247 144.86 107.724 143.494 107.975 142.067C108.517 139.285 107.827 136.35 107.321 133.404C107.047 131.895 106.886 130.416 106.869 128.852C106.852 127.288 107.133 125.744 107.641 124.262C108.727 121.256 110.699 118.806 113.074 116.904C115.408 114.927 118.115 113.615 120.874 112.567C123.633 111.519 126.486 110.808 129.298 110.024C132.109 109.24 134.879 108.382 137.525 107.302C142.93 105.175 148.076 102.414 152.849 98.9897C155.235 97.2774 157.58 95.4914 159.729 93.5266C161.919 91.6356 163.903 89.3757 166.319 87.5471C167.528 86.6327 168.777 85.7922 170.193 85.2468C171.608 84.7014 173.076 84.4199 174.566 84.5188C176.056 84.6176 177.497 85.1394 178.866 85.7037C180.235 86.2681 181.501 86.9914 182.87 87.5558C184.239 88.1202 185.597 88.4944 187.004 88.4457C188.411 88.3969 189.797 87.9679 191.016 87.2437C193.485 85.6791 195.159 83.2092 196.834 80.7394C197.691 79.5414 198.508 78.2695 199.407 77.1453C200.378 75.9785 201.39 74.8854 202.485 73.9399C203.652 72.9518 204.902 72.1113 206.246 71.6084C207.661 71.063 209.129 70.7816 210.619 70.8804C213.6 71.0781 216.39 72.4708 218.659 74.4681C220.958 76.3492 222.807 78.7923 224.329 81.332C227.443 86.3689 229.881 91.9055 233.815 96.3575C237.707 100.736 242.653 104.094 248.167 105.739C249.566 106.187 250.954 106.445 252.372 106.586C253.791 106.728 255.322 106.9 256.793 107.306C258.264 107.711 259.685 108.539 260.748 109.581C261.882 110.579 262.813 111.896 263.63 113.181C265.121 115.837 266.11 118.792 266.657 121.812C266.773 122.53 266.931 123.321 266.903 124.125C266.948 124.885 266.992 125.646 266.965 126.449C266.869 127.982 266.701 129.557 266.307 131.07C265.59 134.053 264.266 136.807 262.943 139.56C261.578 142.24 260.284 144.877 259.259 147.651C258.782 149.016 258.346 150.455 257.726 151.906C257.105 153.356 256.217 154.671 255.133 155.806C252.965 158.078 250.383 159.611 247.913 161.176C246.622 161.943 245.444 162.74 244.266 163.538C243.13 164.41 242.034 165.356 241.052 166.332C239.058 168.402 237.301 170.724 235.853 173.257C232.957 178.321 231.174 184.004 229.658 189.823C228.9 192.732 228.327 195.63 227.497 198.582C226.667 201.534 225.683 204.381 224.431 207.092C221.969 212.588 218.56 217.76 214.16 221.849C211.98 223.93 209.481 225.611 206.857 227.071C204.192 228.457 201.516 229.653 198.994 230.953C196.401 232.297 194.045 233.893 192.092 236.036C190.139 238.18 188.578 240.681 187.016 243.182L177.352 258.168C175.678 260.638 174.158 263.213 172.443 265.609C170.727 268.005 168.713 270.381 166.368 272.167C164.065 274.027 161.369 275.529 158.61 276.578C155.851 277.626 152.874 278.115 149.916 278.298C146.958 278.48 144.061 278.43 141.216 278.644C139.737 278.735 138.299 278.9 136.944 279.213C135.518 279.568 134.133 279.997 132.789 280.5C127.343 282.554 122.374 285.8 116.803 287.632L116.72 287.485C122.25 285.578 127.135 282.185 132.612 280.015C133.956 279.512 135.371 278.967 136.839 278.685C138.266 278.33 139.703 278.165 141.141 278C144.058 277.743 146.955 277.793 149.872 277.537C152.716 277.323 155.581 276.803 158.268 275.797C160.955 274.792 163.466 273.301 165.698 271.483C170.275 267.88 173.118 262.552 176.353 257.581L185.863 242.49C187.424 239.989 189.015 237.371 190.999 235.111C193.054 232.809 195.583 231.011 198.177 229.668C200.801 228.208 203.477 227.012 205.999 225.712C208.592 224.368 210.907 222.699 213.056 220.734C217.282 216.847 220.589 211.834 223.021 206.454C224.201 203.786 225.227 201.013 226.026 198.177C226.825 195.341 227.357 192.369 228.115 189.46C229.631 183.641 231.403 177.768 234.473 172.502C235.951 169.853 237.81 167.372 239.876 165.26C240.889 164.167 242.056 163.179 243.305 162.338C244.514 161.424 245.805 160.657 247.024 159.933C249.494 158.368 252.004 156.877 253.927 154.85C254.868 153.8 255.654 152.644 256.244 151.31C256.834 149.976 257.198 148.579 257.746 147.171C259.858 141.392 263.361 136.557 264.847 130.855C265.211 129.458 265.42 127.957 265.486 126.54C265.483 125.854 265.51 125.05 265.435 124.406C265.391 123.645 265.316 123.001 265.159 122.209C264.694 119.337 263.747 116.457 262.339 113.948C260.931 111.44 258.836 109.241 256.192 108.45C254.834 108.075 253.416 107.934 251.956 107.719C250.496 107.503 248.995 107.214 247.596 106.766C241.927 105.017 236.857 101.437 232.924 96.985C228.949 92.4593 226.582 86.8801 223.54 81.8006C222.018 79.2609 220.21 76.8915 218.024 75.0417C215.838 73.1919 213.12 71.7566 210.253 71.5901C208.876 71.5224 207.366 71.7301 206.064 72.3067C204.72 72.8095 203.542 73.6075 202.375 74.5956C201.28 75.5411 200.268 76.6341 199.369 77.7584C198.469 78.8826 197.653 80.1544 196.795 81.3525C195.937 82.5505 195.121 83.8223 194.15 84.9891C193.179 86.156 192.125 87.1753 190.875 88.0158C189.626 88.8563 188.127 89.2542 186.607 89.2717C185.087 89.2892 183.616 88.8839 182.288 88.3933C180.919 87.8289 179.581 87.1482 178.284 86.5412C176.987 85.9343 175.588 85.4863 174.169 85.3448C171.302 85.1783 168.595 86.4905 166.364 88.3077C164.132 90.1249 162.107 92.3111 159.886 94.3184C157.666 96.3258 155.362 98.1856 152.976 99.8979C148.203 103.322 142.956 106.242 137.52 108.486C134.803 109.608 132.002 110.582 129.19 111.367C126.379 112.151 123.567 112.935 120.921 114.015C118.234 115.02 115.641 116.364 113.45 118.255C111.218 120.072 109.461 122.394 108.466 125.051C107.989 126.416 107.81 127.801 107.744 129.218C107.792 130.665 107.952 132.144 108.184 133.58C108.417 135.016 108.69 136.526 108.892 138.078C109.094 139.631 109.111 141.195 108.758 142.782C108.477 144.326 107.857 145.776 107.308 147.184L105.508 151.303L101.978 159.498C100.839 162.24 99.629 165.025 97.9962 167.569C96.4048 170.186 94.3801 172.372 92.6645 174.768C91.8067 175.966 91.062 177.196 90.6568 178.518C90.1798 179.884 89.9292 181.311 89.9048 182.801C89.839 184.218 89.9278 185.739 90.16 187.175C90.3923 188.611 90.8094 190.036 91.2982 191.418C92.2042 194.225 93.4799 197.009 94.0272 200.028C94.5745 203.048 94.4955 206.145 94.2618 209.136C93.9565 212.17 93.6097 215.131 92.8518 218.04C92.0939 220.95 90.8833 223.735 89.5183 226.414C88.1532 229.094 86.5922 231.595 85.6079 234.442C84.5823 237.215 84.2769 240.25 84.5262 243.25L84.802 242.889Z" fill="#0C2340"/>
</svg>
