<svg width="315" height="330" viewBox="0 0 315 330" fill="none" xmlns="http://www.w3.org/2000/svg">
<path d="M260.017 146.542C256.993 142.358 252.643 139.247 248.526 136.075C246.957 134.907 245.356 133.626 244.275 131.967C242.199 128.507 243.086 124.031 244.762 120.381C246.437 116.731 248.862 113.31 249.715 109.389C251.182 102.943 248.127 96.1597 243.701 91.1886C239.201 86.1761 233.353 82.6064 227.865 78.7608C224.537 76.4142 221.041 73.6869 220.097 69.8096C219.411 67.3204 219.846 64.5997 220.006 62.0114C220.401 67.9719 224.455 73.4037 229.299 77.1746C234.764 81.3899 241.24 84.0685 247.046 87.71C253.737 91.8485 260.757 98.0842 260.55 106.384C260.449 109.867 259.134 113.241 258.611 116.773C256.386 131.784 271.566 146.808 262.581 161.275C262.624 161.204 262.666 161.132 262.751 160.988C264.569 156.27 263.041 150.726 260.017 146.542Z" fill="#FFF666"/>
<path d="M262.243 161.182L262.907 161.554C268.178 152.844 265.175 143.986 262.192 135.425C260.128 129.293 257.958 123.006 258.8 116.784C259.039 115.388 259.321 113.92 259.707 112.607C260.213 110.595 260.688 108.471 260.74 106.396C260.97 97.7256 253.464 91.3132 247.1 87.4535C244.929 86.1394 242.641 84.8555 240.385 83.6848C236.654 81.6858 232.775 79.604 229.353 76.918C223.814 72.6613 220.563 67.2022 220.196 62.0226L219.509 62.0196C219.474 62.5743 219.44 63.1289 219.406 63.6835C219.28 65.7172 219.07 67.8943 219.674 69.8592C220.722 73.891 224.366 76.7013 227.62 79.0064C228.611 79.6579 229.559 80.3812 230.623 81.0741C235.089 84.155 239.777 87.3602 243.457 91.4342C248.419 96.9932 250.682 103.619 249.451 109.336C248.868 111.974 247.536 114.383 246.321 116.761C245.713 117.95 245.031 119.098 244.54 120.257C243.344 122.933 241.577 128.062 244.073 132.141C245.143 133.985 246.933 135.277 248.355 136.362L249.081 136.961C252.872 139.854 256.885 142.871 259.699 146.746C263.038 151.394 264.049 156.648 262.371 160.966C262.328 161.038 262.328 161.038 262.285 161.11L262.243 161.182ZM243.924 86.3405C244.883 86.8789 245.768 87.3758 246.685 87.986C252.902 91.7628 260.26 98.0924 259.979 106.351C259.927 108.426 259.421 110.438 258.958 112.378C258.645 113.732 258.248 115.231 258.082 116.668C257.155 123.034 259.355 129.434 261.493 135.607C264.111 143.293 266.634 150.639 263.779 157.931C264.24 154.173 262.97 150.017 260.261 146.297C257.416 142.308 253.403 139.291 249.496 136.428L248.696 135.788C247.348 134.744 245.557 133.453 244.593 131.763C242.307 127.993 243.946 123.079 245.099 120.475C245.59 119.316 246.272 118.168 246.88 116.979C248.138 114.529 249.47 112.121 250.095 109.411C251.411 103.551 249.129 96.6264 243.988 90.8715C240.234 86.756 235.546 83.5509 231.006 80.4285C230.016 79.777 229.068 79.0537 228.078 78.4022C224.897 76.1385 221.432 73.5243 220.372 69.6773C219.966 68.2064 219.984 66.686 220.075 65.207C221.291 69.6196 224.421 73.9584 228.938 77.4505C232.36 80.1365 236.239 82.2183 240.045 84.2587C241.299 84.9627 242.67 85.6364 243.924 86.3405Z" fill="#FFF666"/>
<path d="M30.0123 226.894C31.2665 227.598 32.7962 228.17 33.6359 229.406C34.433 230.714 34.2139 232.408 35.0536 233.645C35.8507 234.953 37.6131 235.464 39.2196 235.41C40.8261 235.355 42.3078 234.848 43.8945 234.495C46.5598 233.982 49.3072 233.994 51.9778 234.633C59.2716 236.431 63.961 234.664 70.6858 231.457C81.8476 226.245 93.6049 222.515 105.799 220.369C112.398 219.196 119.048 218.434 125.356 216.427C134.902 213.273 143.257 207.155 150.19 199.952C159.364 190.468 167.891 179.091 172.237 166.802C174.411 160.658 175.04 154.794 176.949 148.597C177.861 145.57 176.767 142.278 175.184 139.477C173.601 136.675 171.627 134.037 170.668 131.012C169.137 126.136 170.368 120.419 167.821 115.928C166.856 114.239 165.341 112.815 163.974 111.473C161.627 109.295 159.249 107.004 156.318 105.646C153.503 104.257 150.293 103.698 147.145 103.366C143.808 103.023 140.427 102.752 137.055 102.963C131.697 103.207 126.428 104.458 121.16 105.709C111.83 107.837 102.415 110.107 93.9102 114.324C94.6853 113.516 95.4916 112.821 96.2979 112.125C99.1708 110.104 102.537 108.742 105.694 107.07C107.389 106.204 109.021 105.112 110.58 103.979C113.12 103.014 115.65 102.233 118.241 101.68C120.642 101.115 123.044 100.55 125.488 99.9131C127.466 99.3977 129.487 98.8106 131.434 98.182C134.67 97.7029 138.062 97.7895 141.241 98.2348C148.623 99.2222 155.604 99.8894 162.426 96.3539C168.421 93.2156 174.621 89.2357 181.748 90.6535C188.009 91.8723 193.505 96.2008 197.011 101.23C199.919 105.444 201.311 110.721 200.052 115.657C198.642 121.178 194.577 125.208 195.807 131.254C196.767 136.097 200.49 140.1 204.428 143.076C208.945 146.568 214.122 149.282 218.151 153.265C220.35 155.36 222.205 158.697 220.376 161.113C219.419 162.394 217.747 162.89 216.161 163.242C213.146 163.846 210.038 164.11 206.91 164.076C203.329 163.978 199.463 163.53 196.369 165.427C186.291 171.63 200.052 184.902 196.771 192.911C195.831 195.157 193.815 196.895 191.675 198.18C181.364 204.443 168.663 204.296 160.545 213.99C156.922 218.269 154.69 221.033 148.871 222.549C135.445 226.107 122.062 229.594 108.562 233.11C102.553 234.615 105.63 234.238 99.6205 235.743C88.0199 237.552 84.1352 243.597 75.4867 244.577C73.9966 244.601 72.5491 244.554 71.0164 244.65C65.2774 244.871 59.5353 245.761 53.7681 245.202C48.4977 244.634 43.4547 242.856 38.1644 241.99C32.3463 241.02 26.4483 241.344 20.5191 241.554C17.7269 239.796 17.5125 235.85 16.8295 232.693C15.8461 228.219 24.3648 216.359 26.3585 212.505C22.9705 218.542 26.0707 224.586 30.0123 226.894Z" fill="#FFF666"/>
<path d="M57.1648 186.471C59.9891 185.857 62.8134 185.242 65.7395 185.45C68.5919 185.617 71.5774 186.719 73.3109 188.935C73.9095 189.749 74.3491 190.666 74.3658 191.631C74.3711 192.782 73.7322 193.858 73.1784 194.791C71.1763 198.162 69.1316 201.605 67.2033 205.018C64.8179 209.035 61.89 213.799 57.7681 216.268C56.9732 216.778 56.1471 217.175 55.2785 217.644C53.5837 218.51 51.9316 219.304 50.373 220.438C47.7442 222.214 45.3254 224.299 42.4866 225.766C39.8069 227.132 36.5597 227.796 34.9571 224.696C33.658 222.245 34.0733 219.227 34.7413 216.445C34.9657 215.902 35.1475 215.43 35.3719 214.887C37.0507 210.569 37.9491 205.908 39.4066 201.466C40.3354 199.405 41.338 197.385 42.3405 195.366C42.6387 194.864 42.8631 194.32 43.2039 193.746C44.3738 192.108 45.7962 190.706 47.5024 189.656C50.3951 187.932 53.8751 187.207 57.1648 186.471Z" fill="#FFF666"/>
<path d="M262.407 162.23C268.535 153.237 265.365 143.997 262.257 134.984C260.161 128.739 257.961 122.339 258.846 116.045C259.011 114.607 259.366 113.181 259.721 111.754C260.227 109.743 260.702 107.618 260.796 105.471C261.069 96.7296 253.459 90.1626 246.946 86.2201C244.702 84.8646 242.415 83.5807 240.158 82.41C236.353 80.3696 232.4 78.2464 228.978 75.5604C222.713 70.7047 219.255 64.2686 219.768 58.4354L219.007 58.391C218.514 64.5223 222.077 71.1129 228.521 76.1646C232.059 78.8203 236.086 80.9849 239.891 83.0253C242.148 84.196 244.435 85.4798 246.679 86.8354C252.971 90.6536 260.402 97.0247 260.11 105.468C260.058 107.543 259.509 109.627 259.003 111.638C258.648 113.065 258.293 114.491 258.085 116C257.189 122.479 259.421 128.992 261.473 135.309C264.644 144.549 267.541 153.253 261.7 161.929L262.407 162.23Z" fill="#0C2340"/>
<path d="M36.0293 235.149C36.9885 235.688 38.1606 235.867 39.154 235.851C40.3376 235.846 41.4276 235.501 42.5488 235.27C43.0143 235.149 43.4798 235.028 43.9453 234.906C46.5368 234.352 49.2843 234.364 51.8385 235.033C59.3224 236.843 64.1707 234.973 70.8104 231.91C81.9722 226.698 93.7295 222.968 105.85 220.781C107.51 220.469 109.128 220.23 110.788 219.919C115.685 219.128 120.697 218.307 125.449 216.766C134.212 213.938 142.649 208.345 150.4 200.262C161.209 189.018 168.657 177.8 172.532 166.968C173.774 163.552 174.518 160.145 175.221 156.809C175.803 154.171 176.429 151.461 177.244 148.763C178.017 146.136 177.45 142.949 175.459 139.344C174.977 138.5 174.495 137.655 173.97 136.883C172.827 134.998 171.61 133.071 170.975 130.993C170.339 128.915 170.17 126.716 170.032 124.63C169.834 121.649 169.605 118.556 168.053 115.868C167.058 114.066 165.5 112.713 164.059 111.33C161.712 109.152 159.334 106.861 156.329 105.461C153.44 104.031 150.114 103.503 147.083 103.14C143.217 102.692 139.942 102.575 136.919 102.696C131.444 102.97 126.176 104.221 120.95 105.4C110.879 107.781 100.385 110.212 91.1793 115.278L91.5253 115.855C100.658 110.747 111.035 108.347 121.063 106.038C126.215 104.817 131.557 103.607 136.842 103.322C139.865 103.202 143.024 103.349 146.89 103.797C149.921 104.159 153.099 104.605 155.914 105.994C158.803 107.424 161.15 109.602 163.423 111.738C164.79 113.08 166.274 114.391 167.239 116.08C168.685 118.614 168.852 121.481 169.123 124.502C169.293 126.702 169.42 128.973 170.055 131.051C170.721 133.242 171.938 135.168 173.155 137.095C173.637 137.939 174.162 138.712 174.644 139.557C176.531 143.007 177.109 146.009 176.347 148.451C175.489 151.221 174.864 153.931 174.281 156.568C173.548 159.791 172.803 163.199 171.635 166.656C167.803 177.417 160.397 188.562 149.631 199.735C141.922 207.745 133.644 213.237 124.955 216.107C120.204 217.648 115.191 218.469 110.411 219.229C108.793 219.468 107.133 219.779 105.472 220.091C93.2784 222.237 81.4048 225.997 70.243 231.209C63.6033 234.272 59.1041 236.051 51.7677 234.324C49.0972 233.685 46.2022 233.591 43.4943 234.175C43.0288 234.296 42.5633 234.417 42.0977 234.539C40.9766 234.77 40.0029 235.084 38.8932 235.131C37.5932 235.166 35.862 234.769 35.0649 233.46C34.7188 232.883 34.5317 232.205 34.3872 231.454C34.2427 230.703 34.067 229.84 33.6472 229.221C32.9862 228.181 31.9106 227.673 30.8777 227.093C30.5826 226.927 30.2137 226.72 29.9186 226.555C26.3459 224.454 22.9589 218.727 26.5911 212.445L25.9271 212.072C22.4227 218.139 24.9296 224.519 29.4614 227.159C29.7565 227.324 30.1254 227.532 30.4206 227.697C31.4223 228.164 32.3815 228.702 32.8637 229.547C33.2098 230.124 33.3969 230.802 33.5414 231.553C33.6859 232.304 33.8304 233.054 34.2814 233.786C35.0078 234.385 35.5129 234.859 36.0293 235.149Z" fill="#0C2340"/>
<path d="M99.873 235.981C102.899 235.192 103.64 234.939 104.381 234.685C105.121 234.431 105.862 234.178 108.814 233.348C124.293 229.316 137.094 225.981 149.124 222.787C154.985 221.199 157.291 218.476 160.871 214.269L160.999 214.054C165.94 208.219 172.491 205.967 179.349 203.695C183.635 202.276 188.081 200.754 192.086 198.316C194.746 196.653 196.455 194.934 197.268 192.903C198.699 189.499 197.06 185.135 195.452 180.885C193.155 174.814 191.026 169.123 196.738 165.635C199.239 164.073 202.397 164.221 205.483 164.327C205.979 164.318 206.55 164.352 207.046 164.344C210.174 164.378 213.282 164.114 216.339 163.439C217.926 163.086 219.714 162.559 220.788 161.249C222.616 158.832 220.963 155.322 218.554 152.918C215.997 150.431 213.026 148.476 210.172 146.491C208.412 145.312 206.505 144.051 204.831 142.728C200.061 138.999 197.247 135.124 196.388 131.103C195.592 127.309 197.001 124.274 198.495 121.095C199.327 119.363 200.085 117.589 200.623 115.69C201.827 111.011 200.68 105.489 197.488 100.924C193.593 95.3898 187.81 91.3786 181.93 90.1819C175.405 88.9106 169.759 91.958 164.271 94.9033C163.678 95.2398 162.968 95.6066 162.375 95.943C155.786 99.4178 148.952 98.8335 141.422 97.7632C135.255 96.8838 129.451 97.547 125.394 99.5739L125.698 100.223C129.595 98.2976 135.283 97.6648 141.26 98.5331C148.98 99.6144 155.857 100.127 162.678 96.5916C163.272 96.2551 163.981 95.8883 164.575 95.5519C169.946 92.6368 175.476 89.6198 181.768 90.9518C187.501 92.0656 193.062 95.9526 196.81 101.404C199.823 105.773 200.982 111.11 199.788 115.604C199.251 117.503 198.535 119.205 197.703 120.938C196.166 124.188 194.673 127.366 195.531 131.387C196.378 135.593 199.298 139.622 204.215 143.435C205.963 144.798 207.796 146.019 209.629 147.239C212.526 149.152 215.455 151.178 217.98 153.552C220.21 155.76 221.739 158.818 220.197 160.918C219.326 162.054 217.654 162.551 216.183 162.873C213.169 163.476 210.135 163.782 207.05 163.676C206.553 163.684 205.982 163.651 205.486 163.659C202.284 163.583 199.009 163.466 196.349 165.129C190.16 168.924 192.52 175.222 194.743 181.252C196.246 185.348 197.854 189.598 196.55 192.787C195.823 194.674 194.156 196.321 191.655 197.882C187.692 200.249 183.363 201.74 179.077 203.16C172.409 205.443 165.435 207.745 160.366 213.794L160.239 214.01C156.658 218.217 154.512 220.837 148.925 222.293C136.896 225.487 124.094 228.822 108.616 232.854C105.59 233.642 104.849 233.896 104.108 234.15C103.367 234.403 102.627 234.657 99.6744 235.487L99.873 235.981Z" fill="#0C2340"/>
<path d="M39.2079 235.594C42.0946 235.206 45.2223 235.24 47.8701 236.248C49.2096 236.809 50.4638 237.513 51.8345 238.186C53.1626 238.932 54.6922 239.504 56.202 239.777C57.7857 240.092 59.4233 240.151 60.9674 239.87C62.5853 239.63 63.9933 239.082 65.4324 238.646C68.2795 237.662 71.0954 236.564 73.8376 235.426C76.5797 234.287 79.2481 233.107 82.0526 232.194C84.7833 231.24 87.5338 230.584 90.3892 230.083C96.1001 229.08 101.998 228.757 107.97 228.474C110.919 228.312 113.942 228.192 116.976 227.886C119.967 227.653 123.002 227.348 126.09 226.786C127.634 226.505 129.178 226.224 130.734 225.758C131.548 225.546 132.289 225.292 133.03 225.038C133.813 224.713 134.597 224.388 135.423 223.99C138.495 222.463 140.925 220.192 143.08 218.055C145.235 215.917 147.157 213.839 149.246 212.143C150.254 211.274 151.325 210.632 152.511 209.959C153.698 209.286 154.958 208.654 156.335 207.992C161.493 205.436 167.389 203.294 172.502 198.991C174.963 196.833 177.121 194.028 178.487 191.065C179.927 188.143 180.649 185.105 181.36 182.252C182.633 176.463 183.62 170.991 186.692 166.977C188.106 165.093 190.343 163.48 192.708 161.651C195.073 159.822 197.756 157.789 199.556 154.592C200.451 153.085 201.147 151.085 200.861 148.916C200.649 146.788 199.537 145.017 198.359 143.686C197.182 142.356 195.982 141.395 194.782 140.434L193.15 139.04L191.561 137.575C189.319 135.551 187.214 133.796 186.463 131.748C186.139 130.801 186.091 129.722 186.339 128.809C186.629 127.824 187.384 126.718 188.256 125.581C189.127 124.445 190.115 123.278 190.936 121.73C191.714 120.254 192.263 118.171 191.733 116.247C190.618 112.657 187.721 110.744 186.589 108.674C185.928 107.633 185.585 106.389 185.475 105.083C185.436 104.487 185.396 103.891 185.473 103.265C185.55 102.639 185.743 101.982 185.874 101.099C186.005 100.216 185.767 99.1259 185.316 98.3945C184.907 97.5914 184.34 96.8903 183.761 96.3741C182.456 95.2589 181.011 94.5438 179.513 94.0852C176.516 93.1682 173.241 93.0513 170.203 94.0244C167.24 95.0389 164.79 97.0112 163.077 99.3975L163.33 99.6349C165.147 97.4031 167.629 95.544 170.464 94.7447C173.3 93.9453 176.416 94.1643 179.107 95.1006C180.489 95.5894 181.817 96.3349 182.827 97.2844C183.794 98.3057 184.591 99.6139 184.353 101.01C184.233 101.708 184.04 102.365 183.878 103.135C183.758 103.833 183.713 104.572 183.741 105.353C183.882 106.772 184.245 108.314 184.968 109.581C185.649 110.92 186.69 111.982 187.573 113.147C188.498 114.24 189.337 115.477 189.712 116.834C190.086 118.192 189.731 119.619 189.08 120.879C188.43 122.14 187.411 123.194 186.496 124.402C185.625 125.539 184.71 126.747 184.165 128.163C183.619 129.578 183.676 131.14 184.124 132.539C185.167 135.42 187.568 137.342 189.693 139.395C191.775 141.521 194.23 143.185 196.154 145.413C197.078 146.506 197.802 147.773 197.943 149.191C198.085 150.609 197.656 151.995 196.932 153.214C194.023 158.277 187.821 160.438 184.133 165.158C180.475 169.992 179.497 175.946 178.161 181.509C177.493 184.29 176.709 187.102 175.44 189.736C174.213 192.3 172.427 194.644 170.209 196.556C165.775 200.379 160.217 202.615 154.826 205.232C152.189 206.526 149.466 207.963 147.249 209.874C144.958 211.744 143.024 214.006 140.912 216.073C138.873 218.18 136.656 220.092 134.05 221.498C131.487 222.833 128.503 223.55 125.605 224.123C119.704 225.114 113.838 225.551 107.854 226.018C101.871 226.486 95.8879 226.953 90.0918 228.099C87.1938 228.672 84.2843 229.43 81.4684 230.527C78.6951 231.553 75.9842 232.805 73.1994 234.015C70.4885 235.267 67.8201 236.447 65.0468 237.473C63.6815 237.95 62.2735 238.499 60.8458 238.749C59.4181 239 57.928 239.024 56.4919 238.792C53.5771 238.399 51.0914 236.622 48.2535 235.603C45.3303 234.727 42.2338 234.806 39.262 235.338L39.2079 235.594Z" fill="white"/>
<path d="M110.145 104.213C114.131 101.477 118.054 98.5146 121.504 95.1905C125.027 91.9079 128.236 88.1616 130.78 84.0426C132.089 82.0038 133.03 79.758 134.296 77.7909C135.563 75.8238 137.303 74.2184 139.222 72.8089C141.141 71.3994 143.208 70.0728 145.065 68.437C146.995 66.8427 148.494 64.815 149.804 62.7762C151.113 60.7374 152.2 58.5743 153.541 56.6487C154.807 54.6816 156.295 52.8388 158.245 51.5425C160.196 50.2462 162.492 49.5267 164.785 49.475C167.121 49.3515 169.539 49.7524 171.83 50.3684C174.12 50.9845 176.356 51.8572 178.666 52.7713C180.903 53.6439 183.213 54.558 185.608 55.3286C187.929 56.0579 190.495 56.5415 192.978 56.5009C195.536 56.5017 197.98 55.8651 200.319 55.0738C202.615 54.3543 204.923 53.45 207.282 52.9568C209.598 52.5353 212.007 52.4533 214.255 53.1411C215.342 53.4643 216.375 54.0441 217.206 54.7976C218.038 55.5512 218.667 56.4786 219.022 57.5383C219.731 59.6578 219.466 62.0915 219.318 64.4949C219.28 65.7173 219.169 66.8983 219.322 68.1318C219.475 69.3653 219.744 70.5685 220.363 71.6807C221.483 73.9355 223.324 75.6387 225.177 77.1569C229.042 80.0914 233.236 82.6369 237.027 85.5299C240.818 88.423 244.427 91.7878 246.807 95.8973C248.055 97.9369 248.912 100.139 249.419 102.432C249.926 104.726 249.894 107.099 249.408 109.408C248.848 111.676 247.761 113.839 246.715 115.931C245.554 118.052 244.392 120.174 243.642 122.431C242.892 124.688 242.468 127.224 243.007 129.63C243.276 130.833 243.852 132.017 244.556 132.986C245.333 133.996 246.238 134.791 247.26 135.556C251.082 138.562 255.032 141.353 258.09 144.983C259.656 146.818 260.947 148.786 261.772 150.875C262.629 153.077 263.062 155.329 262.883 157.619C262.814 158.729 262.513 159.899 262.033 160.873C261.735 161.375 261.584 161.96 261.255 162.349C261.127 162.564 260.957 162.851 260.829 163.066L260.329 163.742C258.884 165.513 256.891 166.881 254.836 168.023C250.609 170.337 245.942 171.734 241.568 173.965C237.119 176.155 233.091 178.963 229.42 182.162C225.749 185.362 222.614 189.15 219.922 193.186C218.613 195.225 217.452 197.346 216.364 199.509C215.35 201.714 214.484 204.001 213.807 206.3C213.015 208.628 212.602 210.979 211.969 213.206C211.335 215.433 210.364 217.565 208.887 219.223C207.411 220.881 205.313 222.095 203.059 222.742C200.879 223.432 198.458 223.698 196.091 223.709C191.283 223.688 186.501 222.63 181.471 222.485C180.214 222.448 178.988 222.525 177.688 222.561L176.726 222.69C176.419 222.709 176.07 222.8 175.837 222.861L173.944 223.233C171.574 223.911 169.192 224.774 167.021 225.946C162.646 228.177 158.723 231.139 154.811 233.917C150.899 236.694 146.913 239.43 142.414 241.209C141.863 241.474 141.281 241.625 140.699 241.777C140.117 241.928 139.566 242.193 138.985 242.345L137.208 242.686C136.901 242.706 136.626 242.838 136.319 242.857L135.4 242.915C133.021 243.11 130.603 242.709 128.228 242.236C123.488 241.106 118.888 239.576 114.245 238.118C111.923 237.389 109.559 236.731 107.184 236.259C104.808 235.786 102.39 235.385 99.8757 235.313L99.8643 235.497C102.263 235.6 104.681 236.001 107.087 236.587C109.494 237.173 111.742 237.86 114.137 238.631C118.737 240.161 123.326 241.876 128.139 243.048C130.546 243.633 133.007 243.963 135.533 243.85L136.452 243.793C136.759 243.773 137.108 243.682 137.341 243.622L139.191 243.322C139.773 243.17 140.398 242.947 140.98 242.795C141.562 242.643 142.186 242.42 142.694 242.227C147.384 240.46 151.443 237.765 155.472 234.957C159.457 232.221 163.338 229.331 167.67 227.171C169.799 226.071 172.064 225.238 174.392 224.632L176.169 224.29C176.475 224.271 176.751 224.139 177.057 224.12L177.903 224.02C179.055 223.902 180.313 223.938 181.496 223.933C186.293 224.139 191.075 225.197 196.147 225.271C198.631 225.23 201.199 225.046 203.655 224.224C206.067 223.475 208.398 222.2 210.119 220.297C211.913 218.435 212.865 216.004 213.541 213.706C214.26 211.336 214.629 209.057 215.379 206.8C216.013 204.573 216.911 202.399 217.925 200.194C218.97 198.103 220.015 196.012 221.324 193.973C223.9 189.967 226.949 186.323 230.504 183.153C234.058 179.984 237.97 177.206 242.302 175.047C246.56 172.846 251.301 171.49 255.613 169.033C257.711 167.819 259.863 166.349 261.436 164.363L261.978 163.615C262.148 163.328 262.319 163.042 262.447 162.826C262.787 162.253 263.012 161.709 263.31 161.207C263.801 160.048 264.029 158.837 264.183 157.584C264.373 155.109 263.878 152.631 262.947 150.387C262.017 148.143 260.621 146.021 259.013 144.257C255.764 140.616 251.74 137.784 247.876 134.85C246.928 134.126 246.023 133.331 245.277 132.434C244.53 131.537 244.06 130.508 243.748 129.376C243.198 127.155 243.536 124.763 244.287 122.506C245.744 118.063 248.964 114.132 250.021 109.37C250.55 106.989 250.508 104.574 250.044 102.209C249.579 99.8442 248.649 97.6005 247.327 95.5195C244.873 91.3685 241.306 87.932 237.442 84.9975C235.472 83.5095 233.534 82.1348 231.522 80.7185C229.511 79.3023 227.53 77.9993 225.634 76.5527C223.782 75.0345 222.056 73.301 221.041 71.2008C220.026 69.1006 220.058 66.7275 220.163 64.3958C220.269 62.0641 220.65 59.6001 219.922 57.1826C219.536 56.0098 218.844 54.8561 217.908 53.948C216.971 53.0398 215.748 52.4489 214.587 52.0843C212.118 51.2723 209.561 51.2715 207.012 51.7536C204.58 52.2054 202.198 53.0683 199.902 53.7878C197.605 54.5073 195.278 55.1137 192.911 55.124C190.544 55.1343 188.168 54.6617 185.92 53.9739C181.309 52.6286 177.029 50.2266 172.142 49.0137C169.736 48.4279 167.244 47.9856 164.675 48.1697C163.449 48.2466 162.138 48.4669 160.931 48.8418C159.725 49.2168 158.581 49.8179 157.468 50.5323C155.39 52.0438 153.786 53.917 152.477 55.9558C151.168 57.9946 150.006 60.1162 148.813 62.1247C147.547 64.0917 146.206 66.0174 144.392 67.5814C142.578 69.1454 140.585 70.5135 138.623 71.9947C136.662 73.4759 134.836 75.2248 133.527 77.2636C132.218 79.3024 131.278 81.5483 130.085 83.5567C127.657 87.6455 124.639 91.4028 121.189 94.7269C117.739 98.0509 113.964 101.096 110.009 103.945L110.145 104.213Z" fill="#0C2340"/>
<path d="M55.3408 217.87L57.714 216.525C58.5089 216.014 59.23 215.463 59.8773 214.87C61.2883 213.653 62.4042 212.271 63.5627 210.817C65.7633 207.94 67.4475 204.773 69.3217 201.616L72.0906 196.954L73.4537 194.658C73.9223 193.869 74.3171 193.039 74.4479 192.156C74.6214 191.201 74.2981 190.255 73.8471 189.523C73.3648 188.679 72.7548 188.049 72.0284 187.45C70.533 186.324 68.7821 185.628 66.8919 185.332C65.0017 185.036 63.1625 185.152 61.3544 185.38C59.5038 185.68 57.7269 186.022 55.9075 186.435C54.088 186.849 52.2685 187.262 50.5852 187.943C48.8281 188.583 47.2072 189.49 45.7224 190.665C42.8266 193.057 40.9835 196.326 39.6683 199.7C38.353 203.075 37.5231 206.626 36.5882 210.022C36.0626 211.736 35.5369 213.449 34.8637 215.08C34.1905 216.71 33.4009 218.371 32.9802 220.239C32.6022 222.036 32.8143 224.163 33.8951 225.822C34.4938 226.636 35.3677 227.318 36.3383 227.672C37.3089 228.025 38.4186 227.978 39.3808 227.849C41.3479 227.519 43.0114 226.539 44.6323 225.632L49.4214 222.869L54.2104 220.105C55.8314 219.198 57.3474 218.136 58.8519 217.259C60.3991 216.31 62.0086 215.588 63.7231 215.02C65.395 214.524 67.2031 214.295 69.0537 213.995C70.8617 213.767 72.7862 213.508 74.5745 212.981C76.3627 212.455 78.1624 211.743 79.7834 210.836C82.9826 209.093 86.2557 207.392 89.3926 205.422C92.5296 203.453 95.5189 201.401 98.3721 199.081C101.225 196.761 103.826 194.204 106.174 191.41C108.522 188.615 110.723 185.738 112.523 182.54C114.25 179.301 115.46 175.772 115.572 172.105C115.57 170.287 115.378 168.457 114.836 166.718C114.295 164.98 113.447 163.26 112.312 161.858C111.219 160.384 109.65 159.217 107.985 158.377C106.319 157.538 104.397 157.129 102.581 156.874C98.9482 156.366 95.1762 156.257 91.4863 156.672C87.8276 157.201 84.1347 158.284 81.2077 160.563C78.2807 162.841 76.1851 165.873 73.8795 168.596C72.7636 169.978 71.5739 171.319 70.1629 172.535C68.7945 173.68 67.1736 174.587 65.4903 175.268C63.807 175.949 62.0187 176.476 60.3042 177.044C58.5471 177.683 56.8212 178.436 55.3478 179.426C52.2109 181.396 49.7151 184.107 47.5457 187.098C45.4189 190.017 43.6184 193.214 42.0081 196.423C38.7874 202.84 35.8618 209.423 33.5691 216.266C33.0434 217.979 32.7391 219.817 32.7414 221.636C32.8007 222.53 32.9338 223.465 33.1832 224.37C33.4327 225.275 34.0313 226.09 34.7151 226.76C35.3989 227.431 36.2843 227.928 37.2237 228.168C38.163 228.409 39.1564 228.393 40.1186 228.263C42.0431 228.004 43.7378 227.138 45.3899 226.344C47.0109 225.437 48.4842 224.447 50.1052 223.539C51.6524 222.591 53.2307 221.755 54.8516 220.848C58.1247 219.146 61.3864 217.63 64.753 216.267C68.1196 214.905 71.56 213.585 75.0202 212.562C78.523 211.468 82.0881 210.599 85.6304 210.101C86.4762 210.002 87.3844 210.129 88.2926 210.256C89.2434 210.312 90.2368 210.296 91.199 210.166C93.0497 209.866 94.838 209.34 96.6148 208.998L107.435 206.846C111.031 206.091 114.659 205.449 118.267 204.51C121.874 203.57 125.357 202.177 128.537 200.136C134.853 196.126 139.72 190.25 143.131 183.844C146.584 177.366 148.582 170.358 150.199 163.327C150.986 159.848 151.626 156.285 152.266 152.723C152.528 150.957 152.758 149.078 152.682 147.218C152.606 145.358 152.15 143.476 151.302 141.757C149.722 138.288 146.913 135.564 143.752 133.598C142.171 132.615 140.389 131.806 138.596 131.182C136.802 130.558 134.954 130.19 133.064 129.894C129.315 129.416 125.532 129.492 121.884 129.835C118.163 130.138 114.536 130.78 110.877 131.308C107.25 131.95 103.58 132.664 100.034 133.83C96.4888 134.996 93.037 136.501 89.8689 138.358C86.627 140.172 83.595 142.296 80.7106 144.503C77.7524 146.668 74.973 149.029 72.2248 151.503C66.7709 156.38 61.8958 161.774 57.4208 167.487C48.6184 178.996 41.7853 191.994 37.654 205.743C36.6027 209.17 35.7727 212.721 34.9116 216.159C34.4597 217.914 34.198 219.68 34.2003 221.498C34.2596 222.392 34.3927 223.328 34.6847 224.161C34.9768 224.994 35.459 225.839 36.1854 226.438C36.9118 227.037 37.925 227.319 38.8446 227.261C39.7642 227.203 40.6952 226.961 41.5525 226.677C43.2358 225.996 44.8256 224.975 46.3415 223.914C47.8575 222.852 49.2259 221.707 50.8157 220.686C52.0677 219.572 53.7199 218.778 55.3408 217.87ZM55.2358 217.716C53.6575 218.552 52.0054 219.346 50.4156 220.366C48.8996 221.428 47.4574 222.531 45.984 223.522C44.4681 224.584 42.9947 225.574 41.2376 226.213C40.3803 226.497 39.5231 226.781 38.6035 226.839C37.6839 226.897 36.7871 226.584 36.0919 226.099C35.4393 225.541 34.9144 224.768 34.6224 223.935C34.3303 223.101 34.1546 222.238 34.1691 221.385C34.1243 219.638 34.5023 217.842 34.9116 216.159C35.3635 214.404 35.6989 212.679 36.2246 210.966C36.6764 209.211 37.2021 207.498 37.7277 205.784C42.0804 192.16 48.9447 179.275 57.9259 167.962C62.3582 162.32 67.3809 157.01 72.7922 152.205C75.4978 149.802 78.3084 147.554 81.2666 145.389C84.2248 143.223 87.1716 141.243 90.2971 139.459C93.4226 137.674 96.758 136.199 100.218 135.176C103.721 134.082 107.243 133.286 110.828 132.716C114.413 132.146 118.115 131.545 121.719 131.273C125.367 130.929 128.96 130.842 132.593 131.351C134.409 131.605 136.14 132.003 137.786 132.545C139.506 133.127 141.098 133.925 142.531 134.825C145.545 136.708 148.059 139.267 149.545 142.397C150.288 143.961 150.682 145.617 150.769 147.292C150.857 148.967 150.669 150.775 150.333 152.499C149.736 155.99 149.023 159.51 148.309 163.031C146.808 170.031 144.822 176.855 141.454 183.189C138.128 189.452 133.463 195.154 127.422 199.032C124.401 200.971 121.035 202.333 117.543 203.243C114.009 204.224 110.382 204.866 106.785 205.621L95.9653 207.773C94.1884 208.114 92.4001 208.641 90.5921 208.869C89.7037 209.04 88.8266 209.026 87.9496 209.012C87.0726 208.998 86.0906 208.829 85.1284 208.959C77.6947 210.046 70.7827 212.574 63.9331 215.329C60.5238 216.763 57.2196 218.351 53.9465 220.053C52.3256 220.96 50.7472 221.796 49.2001 222.744C47.6529 223.693 46.0631 224.714 44.5586 225.591C42.9802 226.426 41.3281 227.221 39.5938 227.49C38.7054 227.661 37.8284 227.647 37.0054 227.376C36.1398 227.178 35.402 226.763 34.7919 226.134C33.4867 225.019 33.0616 223.25 33.0167 221.503C32.9719 219.756 33.3074 218.032 33.7592 216.277C36.0094 209.506 38.8611 202.882 42.0818 196.464C43.6922 193.256 45.4501 190.13 47.5031 187.17C49.63 184.251 52.0831 181.611 55.1462 179.6C56.6934 178.651 58.3455 177.857 60.06 177.289C61.7745 176.721 63.5628 176.195 65.2461 175.514C67.0032 174.874 68.6241 173.967 70.0351 172.75C71.4462 171.534 72.6358 170.193 73.8681 168.781C76.1425 165.945 78.2693 163.026 81.1537 160.819C84.0381 158.613 87.6146 157.56 91.2307 157.103C94.8468 156.646 98.5336 156.898 102.166 157.407C103.983 157.661 105.745 158.172 107.337 158.97C108.929 159.768 110.308 160.925 111.369 162.286C112.43 163.646 113.247 165.253 113.715 166.95C114.225 168.575 114.418 170.405 114.389 172.11C114.288 175.592 113.047 179.008 111.332 182.062C109.574 185.188 107.416 187.994 105.036 190.675C102.657 193.357 100.056 195.914 97.3194 198.203C94.5826 200.493 91.5932 202.545 88.4989 204.442C85.4046 206.34 82.2053 208.083 79.006 209.826C77.4277 210.661 75.8181 211.384 74.0725 211.839C72.3268 212.293 70.5925 212.563 68.7845 212.792C66.9764 213.02 65.052 213.279 63.2211 213.877C61.3903 214.475 59.7381 215.27 58.0746 216.249C56.4536 217.156 54.9377 218.218 53.3905 219.167L48.6752 221.972L43.96 224.777C42.4128 225.725 40.7607 226.519 39.1002 226.831C38.2544 226.93 37.4511 226.957 36.7019 226.728C35.9527 226.499 35.2575 226.013 34.8376 225.395C33.9241 224.117 33.6579 222.246 34.0246 220.634C34.3175 218.981 35.1071 217.321 35.7803 215.69C36.4961 213.988 37.0217 212.274 37.4736 210.519C38.4511 207.051 39.1646 203.53 40.4373 200.228C41.7099 196.925 43.5104 193.727 46.1735 191.397C47.5419 190.252 49.089 189.303 50.8035 188.735C52.4868 188.054 54.2325 187.599 56.052 187.186C59.5745 186.39 63.2986 185.419 66.8576 185.887C68.674 186.141 70.3938 186.724 71.8154 187.809C72.4681 188.367 73.1519 189.037 73.6029 189.769C74.0539 190.5 74.3034 191.405 74.2152 192.217C74.0843 193.1 73.6157 193.889 73.2635 194.647L71.9004 196.943L69.1316 201.605C67.2999 204.69 65.6158 207.857 63.4889 210.776C62.4468 212.199 61.2146 213.612 59.9199 214.798C59.2726 215.391 58.5515 215.943 57.7566 216.453L55.2358 217.716Z" fill="#0C2340"/>
<path d="M20.6782 241.453C24.6944 241.316 28.5942 241.21 32.5875 241.443C34.5629 241.595 36.5383 241.748 38.4285 242.043C40.3924 242.381 42.2712 242.861 44.15 243.342C47.9813 244.345 51.8126 245.348 55.806 245.581C59.7993 245.814 63.7531 245.451 67.7381 245.201C75.5605 244.618 83.4194 245.3 91.2669 246.166L114.937 248.549C122.754 249.302 130.706 250.323 138.73 249.566C142.684 249.203 146.746 248.327 150.473 246.689C154.274 245.093 157.476 242.682 160.803 240.724C162.467 239.745 164.088 238.837 165.961 238.168C167.718 237.528 169.58 237.043 171.505 236.784C175.28 236.225 179.211 236.232 183.173 236.352C187.135 236.472 191.097 236.591 195.125 236.27C197.123 236.052 199.164 235.763 201.142 235.248C203.121 234.733 205.006 233.878 206.786 232.868C210.314 230.736 213.054 227.779 215.499 224.656C217.944 221.533 220.051 218.317 222.41 215.337C227.172 209.307 232.85 203.886 239.158 199.393C242.276 197.126 245.645 195.096 249.015 193.066C252.311 190.995 255.649 188.852 258.704 186.358C261.833 183.906 264.604 181.062 266.932 177.969C268.059 176.402 269.156 174.722 270.062 173.031C270.967 171.34 271.916 169.577 272.748 167.844C274.413 164.379 275.824 160.676 276.782 156.91C277.666 153.102 278.096 149.231 277.649 145.345C277.425 143.402 277.085 141.49 276.513 139.638C275.94 137.787 275.134 135.995 274.329 134.204C272.792 130.664 271.487 127.062 270.765 123.309C270.382 121.468 270.232 119.567 270.273 117.677C270.239 115.745 270.47 113.866 270.627 111.946C270.783 110.025 270.866 108.063 270.569 106.079C270.272 104.095 269.582 102.274 268.777 100.483C267.166 96.9003 265.078 93.6243 263.731 90.0946C262.31 86.5234 261.355 82.831 260.136 79.0861C258.948 75.4544 257.538 71.6984 255.26 68.4112C254.18 66.7524 252.781 65.2978 251.18 64.0169C249.58 62.736 247.809 61.7421 246.027 60.933C242.389 59.2735 238.527 58.1575 234.908 56.796C231.29 55.4344 227.939 53.4577 224.758 51.1939C221.577 48.9302 218.481 46.5231 215.343 44.1876C212.162 41.9239 208.748 39.7208 204.951 38.1633C203.052 37.3846 201.1 36.8624 199.019 36.5555C196.939 36.2486 194.879 36.2396 192.849 36.3439C190.777 36.5198 188.81 36.8503 186.843 37.1809L180.973 38.2856L169.35 40.4646L163.48 41.5693C161.587 41.9413 159.62 42.2718 157.568 42.7458C155.589 43.2612 153.599 43.9614 151.808 45.1557C150.017 46.35 148.583 47.9362 147.487 49.6163C145.147 52.8938 143.63 56.4419 141.165 59.2668C138.744 62.0199 135.374 64.0498 132.413 66.8828C130.916 68.2428 129.556 69.8704 128.639 71.7465C127.648 73.5812 127.111 75.4795 126.574 77.3778C126.037 79.2761 125.616 81.1441 124.974 82.8879C124.727 83.8012 124.332 84.6316 124.011 85.5035C123.616 86.334 123.295 87.2059 122.784 88.0666C121.088 91.4188 118.908 94.5942 116.369 97.3777C113.831 100.161 110.85 102.696 107.67 104.737C104.522 106.891 100.818 108.159 97.2891 110.291C95.5092 111.301 93.8654 112.578 92.4742 114.092C91.0829 115.607 89.913 117.245 88.7857 118.812L87.0734 121.199C86.8604 121.558 86.4885 122.018 86.2329 122.449C85.9773 122.879 85.7217 123.309 85.4973 123.853C84.6226 125.657 84.0855 127.556 83.2959 129.217C82.9011 130.047 82.4326 130.836 81.9328 131.512L81.0611 132.649L80.1156 133.744C78.8095 135.115 77.4297 136.444 75.9449 137.619C73.0065 140.083 69.6368 142.113 66.3097 144.071C59.5818 147.946 52.3374 151.531 46.3951 156.899C43.4453 159.547 40.8104 162.658 39.0608 166.267C37.3113 169.876 36.4273 173.684 35.5122 177.378C34.6708 181.114 33.7443 184.994 33.8423 188.97C33.8757 190.902 33.9517 192.762 33.7212 194.641C33.4907 196.52 33.1864 198.357 32.5444 200.101C31.9024 201.845 30.9964 203.536 30.0167 205.186C29.0369 206.836 28.0572 208.486 27.1086 210.249C25.3705 213.673 23.1896 216.848 21.2613 220.261C20.2816 221.911 19.333 223.674 18.5009 225.406C17.6687 227.139 16.8677 228.985 16.5946 230.935C16.4865 231.449 16.4949 231.932 16.577 232.456C16.6592 232.98 16.7839 233.433 16.9086 233.885C17.1155 234.862 17.2486 235.798 17.4981 236.703C18.0822 238.37 18.8763 240.346 20.6782 241.453ZM20.7322 241.196C20.3633 240.989 20.0058 240.597 19.7221 240.247C19.4384 239.896 19.1973 239.474 18.9562 239.052C18.4739 238.207 18.2245 237.302 18.0176 236.325C17.7681 235.42 17.6776 234.413 17.502 233.549C17.3772 233.096 17.2951 232.572 17.2441 232.161C17.1932 231.75 17.1848 231.267 17.2928 230.754C17.5971 228.916 18.4719 227.111 19.2615 225.451C20.0937 223.718 21.0734 222.068 22.0532 220.418C23.0329 218.768 24.0864 217.16 25.1826 215.48C25.6937 214.619 26.2361 213.871 26.7472 213.011L28.1644 210.459C29.1441 208.809 30.1239 207.159 31.1462 205.437C32.126 203.788 33.0745 202.025 33.8329 200.251C34.5601 198.363 34.9808 196.495 35.1801 194.503C35.3795 192.511 35.346 190.579 35.3864 188.689C35.3507 184.939 36.2659 181.245 37.2236 177.478C38.1387 173.784 39.0965 170.017 40.792 166.665C42.4876 163.313 44.9209 160.375 47.8593 157.912C50.724 155.407 53.9887 153.223 57.3158 151.264C60.6428 149.306 64.1913 147.472 67.5921 145.556C71.0356 143.567 74.4053 141.537 77.5764 139.013C79.1038 137.767 80.6 136.407 81.9487 134.964L82.9368 133.797L83.8511 132.589C84.5098 131.811 84.9898 130.837 85.4272 129.935C86.302 128.13 86.9128 126.273 87.7024 124.612C87.9154 124.254 88.0972 123.782 88.3102 123.423C88.5232 123.065 88.7362 122.706 89.0655 122.317C89.6505 121.498 90.1928 120.75 90.7778 119.931C91.9051 118.364 93.0324 116.797 94.2221 115.456C95.5281 114.085 96.9703 112.982 98.5175 112.033C101.728 110.105 105.518 108.693 108.899 106.479C112.311 104.377 115.377 101.699 118.117 98.7414C120.783 95.7427 123.123 92.4652 124.83 88.9282C126.685 85.474 127.844 81.5339 128.759 77.8393C129.253 76.0128 129.822 74.2276 130.685 72.6081C131.548 70.9886 132.664 69.6065 134.002 68.3486C136.719 65.7611 140.131 63.6595 142.84 60.5891C145.517 57.4055 147.077 53.7857 149.246 50.7951C150.257 49.2585 151.563 47.8874 153.036 46.8973C154.51 45.9071 156.267 45.2675 158.129 44.7824C159.991 44.2973 161.958 43.9668 163.851 43.5949L169.647 42.4488L181.313 40.1979C185.174 39.4955 189.045 38.6082 192.883 38.2755C194.764 38.0884 196.709 38.1276 198.599 38.4235C200.489 38.7193 202.294 39.1587 204.119 39.896C207.694 41.3292 210.929 43.3363 214.11 45.6001C217.291 47.8638 220.387 50.2709 223.611 52.4629C226.908 54.6963 230.333 56.7145 234.099 58.1589C237.865 59.6032 241.622 60.5647 245.187 62.1828C246.969 62.9919 248.592 63.903 250.045 65.101C251.625 66.0839 252.95 67.4971 254 69.0427C256.216 72.1036 257.594 75.7464 258.825 79.3065C260.013 82.9382 261.115 86.7135 262.536 90.2846C263.988 93.9689 266.192 97.2146 267.772 100.684C268.62 102.403 269.236 104.183 269.502 106.054C269.811 107.853 269.728 109.815 269.571 111.736C269.414 113.656 269.257 115.577 269.291 117.508C269.324 119.44 269.431 121.413 269.888 123.295C270.568 127.12 271.946 130.763 273.557 134.345C274.362 136.136 275.137 137.814 275.709 139.666C276.282 141.517 276.665 143.358 276.814 145.259C277.23 149.032 276.801 152.903 275.959 156.639C275.044 160.334 273.601 163.923 271.937 167.388C270.198 170.812 268.418 174.308 266.206 177.37C263.877 180.463 261.149 183.235 258.106 185.544C255.02 187.924 251.724 189.995 248.354 192.025C244.984 194.055 241.583 195.972 238.35 198.27C231.925 202.793 226.057 208.202 221.062 214.294C218.586 217.303 216.363 220.551 214.004 223.53C211.644 226.509 208.915 229.282 205.705 231.21C204.041 232.189 202.358 232.87 200.496 233.355C198.634 233.84 196.783 234.14 194.828 234.286C190.99 234.618 187.071 234.427 183.108 234.307C179.146 234.187 175.141 234.139 171.06 234.717C169.019 235.006 167.041 235.522 165.125 236.263C163.208 237.005 161.429 238.014 159.691 238.952C156.279 241.054 153.162 243.321 149.667 244.898C146.173 246.475 142.344 247.291 138.506 247.624C130.746 248.433 122.868 247.453 115.009 246.772L91.4009 244.615C83.5419 243.934 75.5667 243.283 67.5853 243.968C63.674 244.259 59.7202 244.622 55.8318 244.543C51.9435 244.465 48.1121 243.462 44.2382 242.531C42.3169 242.122 40.3643 241.6 38.4315 241.376C36.4675 241.038 34.4922 240.886 32.4742 240.805C28.6596 240.768 24.6008 240.977 20.7322 241.196Z" fill="#0C2340"/>
<path d="M71.1749 244.548C74.1749 244.797 77.209 244.492 80.1299 243.549C83.0508 242.606 85.6256 241.087 88.2628 239.793C90.8999 238.5 93.6421 237.361 96.5515 236.603C99.4184 235.917 102.379 235.57 105.37 235.337C108.362 235.103 111.342 235.054 114.246 235.632C117.149 236.209 119.859 237.444 122.697 238.463C124.079 238.952 125.577 239.41 127.087 239.684C128.597 239.957 130.118 240.046 131.725 239.992C133.258 239.895 134.759 239.686 136.315 239.22C137.796 238.713 139.142 237.938 140.383 237.009C142.895 235.263 144.965 233.268 147.54 231.749C149.998 230.259 152.783 229.049 155.525 227.91L163.794 224.422L167.87 222.693C169.204 222.103 170.57 221.626 171.997 221.375C174.779 220.833 177.714 221.523 180.66 222.029C182.169 222.303 183.648 222.463 185.212 222.48C186.776 222.497 188.32 222.216 189.802 221.709C192.808 220.623 195.258 218.651 197.16 216.275C199.136 213.942 200.449 211.235 201.497 208.476C202.545 205.717 203.256 202.864 204.04 200.052C204.824 197.241 205.682 194.47 206.762 191.824C208.889 186.419 211.65 181.274 215.074 176.501C216.787 174.115 218.573 171.77 220.537 169.621C222.428 167.431 224.688 165.447 226.517 163.031C227.431 161.822 228.272 160.572 228.817 159.157C229.363 157.742 229.644 156.274 229.545 154.784C229.446 153.293 228.925 151.853 228.36 150.484C227.796 149.115 227.073 147.848 226.508 146.48C225.944 145.111 225.57 143.753 225.618 142.346C225.667 140.938 226.096 139.553 226.82 138.334C228.385 135.865 230.855 134.19 233.325 132.516C234.523 131.658 235.794 130.842 236.919 129.943C238.086 128.972 239.179 127.96 240.124 126.864C241.112 125.697 241.953 124.448 242.456 123.104C243.001 121.689 243.282 120.221 243.184 118.731C242.986 115.75 241.593 112.96 239.596 110.691C237.715 108.392 235.272 106.542 232.732 105.021C227.695 101.907 222.158 99.4688 217.706 95.5352C213.328 91.6431 209.969 86.6972 208.325 81.1833C207.877 79.7842 207.619 78.3961 207.478 76.9777C207.336 75.5593 207.164 74.0278 206.758 72.5569C206.353 71.086 205.525 69.6647 204.483 68.602C203.485 67.4675 202.168 66.5372 200.883 65.72C198.226 64.2291 195.272 63.2403 192.252 62.693C191.534 62.5769 190.743 62.4193 189.939 62.4467C189.179 62.4023 188.418 62.3579 187.615 62.3853C186.082 62.4814 184.507 62.6492 182.994 63.0433C180.011 63.7598 177.257 65.0835 174.504 66.4072C171.824 67.7722 169.187 69.0656 166.413 70.0912C165.048 70.5682 163.609 71.0037 162.158 71.6241C160.708 72.2446 159.393 73.1327 158.258 74.2168C155.986 76.385 154.453 78.9673 152.888 81.4365C152.121 82.7277 151.323 83.9057 150.526 85.0837C149.654 86.2203 148.708 87.3155 147.732 88.2976C145.662 90.292 143.34 92.049 140.807 93.4969C135.743 96.3927 130.06 98.1763 124.241 99.6922C121.332 100.45 118.434 101.023 115.482 101.853C112.53 102.682 109.683 103.667 106.972 104.919C101.476 107.381 96.3035 110.79 92.2149 115.19C90.1338 117.369 88.4527 119.869 86.993 122.493C85.607 125.158 84.4113 127.834 83.1105 130.356C81.7672 132.949 80.1713 135.305 78.0277 137.258C75.8842 139.211 73.3832 140.772 70.8822 142.333L55.8958 151.998C53.426 153.672 50.8512 155.192 48.4551 156.907C46.0591 158.623 43.6828 160.636 41.8968 162.981C40.0369 165.285 38.5346 167.98 37.4864 170.739C36.4382 173.499 35.949 176.476 35.7664 179.434C35.5838 182.392 35.6339 185.289 35.4201 188.134C35.3288 189.613 35.1637 191.051 34.851 192.406C34.4958 193.832 34.0667 195.217 33.5639 196.561C31.5101 202.007 28.2643 206.976 26.4318 212.547L26.5793 212.63C28.4856 207.1 31.879 202.214 34.0492 196.738C34.552 195.394 35.0974 193.979 35.3789 192.511C35.7342 191.084 35.8992 189.647 36.0643 188.209C36.3207 185.292 36.2706 182.395 36.527 179.478C36.7408 176.633 37.2612 173.769 38.2668 171.082C39.2724 168.395 40.7633 165.884 42.5806 163.652C46.1838 159.075 51.5121 156.232 56.483 152.997L71.5743 143.487C74.0753 141.926 76.6927 140.335 78.9526 138.351C81.2552 136.296 83.0526 133.766 84.396 131.173C85.8557 128.549 87.0515 125.873 88.3522 123.351C89.6956 120.758 91.3652 118.443 93.33 116.294C97.217 112.068 102.23 108.761 107.61 106.329C110.278 105.149 113.051 104.123 115.887 103.324C118.723 102.524 121.695 101.993 124.604 101.235C130.423 99.7189 136.296 97.9465 141.562 94.8769C144.211 93.3986 146.692 91.5396 148.804 89.4734C149.897 88.461 150.885 87.2941 151.726 86.0444C152.64 84.836 153.407 83.5449 154.131 82.3254C155.696 79.8562 157.187 77.3456 159.214 75.4229C160.264 74.4823 161.42 73.6962 162.754 73.1061C164.088 72.516 165.485 72.1522 166.893 71.6035C172.672 69.4916 177.507 65.9887 183.209 64.5031C184.606 64.1393 186.107 63.9301 187.524 63.8643C188.21 63.8672 189.014 63.8399 189.658 63.9146C190.419 63.959 191.063 64.0337 191.855 64.1912C194.727 64.6557 197.607 65.6031 200.116 67.0112C202.624 68.4193 204.823 70.5143 205.614 73.1581C205.989 74.5159 206.13 75.9342 206.345 77.394C206.56 78.8538 206.849 80.3551 207.297 81.7542C209.047 87.4226 212.627 92.4928 217.079 96.4263C221.605 100.401 227.184 102.768 232.263 105.81C234.803 107.332 237.172 109.14 239.022 111.326C240.872 113.512 242.307 116.23 242.474 119.097C242.542 120.474 242.334 121.984 241.757 123.286C241.254 124.63 240.457 125.808 239.468 126.975C238.523 128.07 237.43 129.082 236.306 129.981C235.181 130.881 233.91 131.697 232.712 132.555C231.513 133.413 230.242 134.229 229.075 135.2C227.908 136.171 226.889 137.225 226.048 138.474C225.208 139.724 224.81 141.222 224.792 142.743C224.775 144.263 225.18 145.734 225.671 147.062C226.235 148.43 226.916 149.769 227.523 151.066C228.13 152.363 228.578 153.762 228.719 155.181C228.886 158.048 227.573 160.754 225.756 162.986C223.939 165.218 221.753 167.243 219.746 169.463C217.738 171.684 215.878 173.988 214.166 176.374C210.742 181.147 207.822 186.394 205.578 191.83C204.456 194.547 203.482 197.348 202.697 200.159C201.913 202.971 201.129 205.783 200.049 208.429C199.044 211.116 197.7 213.709 195.809 215.9C193.992 218.132 191.67 219.889 189.013 220.884C187.648 221.361 186.262 221.54 184.846 221.606C183.399 221.558 181.92 221.398 180.484 221.165C179.048 220.933 177.538 220.66 175.985 220.458C174.433 220.256 172.869 220.239 171.282 220.591C169.738 220.872 168.288 221.493 166.88 222.041L162.761 223.842L154.566 227.372C151.824 228.51 149.039 229.721 146.495 231.354C143.878 232.945 141.692 234.97 139.296 236.685C138.098 237.543 136.868 238.288 135.546 238.693C134.18 239.17 132.753 239.421 131.262 239.445C129.846 239.511 128.325 239.422 126.889 239.19C125.453 238.958 124.028 238.54 122.646 238.052C119.839 237.146 117.055 235.87 114.036 235.323C111.016 234.775 107.919 234.854 104.928 235.088C101.894 235.393 98.9331 235.74 96.0237 236.498C93.1142 237.256 90.3295 238.467 87.6497 239.832C84.9699 241.197 82.4689 242.758 79.6218 243.742C76.8485 244.768 73.8143 245.073 70.8143 244.824L71.1749 244.548Z" fill="#0C2340"/>
</svg>
