<svg width="455" height="455" viewBox="0 0 455 455" fill="none" xmlns="http://www.w3.org/2000/svg">
<path d="M151.754 299.626C141.062 297.599 136.77 288.824 132.594 280.254C129.66 274.356 126.69 268.275 121.614 264.45C120.481 263.55 119.221 262.792 117.961 262.035C116.181 260.97 114.343 259.804 112.759 258.352C106.384 252.364 107.122 242.339 108.939 234.946C109.568 232.401 110.277 229.875 111.045 227.452C112.293 223.319 113.587 219.022 114.107 214.703C115.104 206.839 112.998 199.843 108.511 196.081L109.017 195.512C113.701 199.499 115.842 206.678 114.858 214.807C114.234 219.187 112.917 223.565 111.669 227.699C110.901 230.122 110.192 232.647 109.563 235.192C107.815 242.341 107.065 252.101 113.242 257.865C114.746 259.295 116.607 260.38 118.387 261.445C119.647 262.203 120.907 262.96 122.121 263.88C127.336 267.828 130.363 274.011 133.378 279.93C137.67 288.705 141.776 296.908 152.041 298.913L151.754 299.626Z" fill="#0C2340"/>
<path d="M363.389 191.114C363.092 192.173 362.39 193.129 361.676 193.82C360.835 194.653 359.821 195.18 358.865 195.809C358.45 196.053 358.035 196.296 357.62 196.54C355.396 197.98 353.461 199.932 352.128 202.21C348.116 208.782 343.366 210.888 336.504 213.417C324.926 217.624 313.975 223.301 303.859 230.324C302.464 231.278 301.151 232.253 299.757 233.207C295.736 236.11 291.611 239.074 287.161 241.345C278.965 245.541 269.044 247.551 257.848 247.317C242.254 247.009 229.055 244.344 218.656 239.425C215.362 237.887 212.426 236.004 209.571 234.142C207.294 232.689 204.936 231.215 202.451 229.883C200.047 228.573 198.194 225.918 197.053 221.961C196.797 221.023 196.541 220.085 196.365 219.168C195.841 217.026 195.339 214.804 194.319 212.885C193.299 210.967 191.863 209.292 190.486 207.719C188.518 205.471 186.493 203.122 185.689 200.124C185.119 198.146 185.264 196.088 185.305 194.091C185.425 190.892 185.486 187.59 186.621 184.475C187.652 181.421 189.631 178.696 191.518 176.296C193.934 173.246 196.168 170.847 198.39 168.795C202.456 165.117 207.066 162.277 211.595 159.416C220.4 153.978 229.538 148.277 239.631 145.349L239.794 146.002C229.725 148.848 220.689 154.488 211.965 159.947C207.459 162.726 202.826 165.648 198.888 169.184C196.665 171.236 194.535 173.574 192.119 176.624C190.232 179.024 188.299 181.586 187.291 184.559C186.259 187.613 186.14 190.812 186.044 193.93C186.025 195.845 185.903 197.822 186.415 199.698C187.184 202.513 189.094 204.658 191.038 206.986C192.474 208.661 193.99 210.357 195.01 212.276C196.088 214.296 196.59 216.519 197.092 218.742C197.348 219.68 197.523 220.597 197.779 221.535C198.885 225.309 200.599 227.84 202.864 229.029C205.43 230.381 207.788 231.855 210.065 233.308C212.863 235.068 215.799 236.951 219.069 238.57C229.388 243.469 242.506 246.113 258.019 246.4C269.134 246.614 278.871 244.644 287.044 240.529C291.493 238.259 295.618 235.295 299.536 232.452C300.849 231.478 302.243 230.524 303.638 229.57C313.777 222.464 324.832 216.727 336.41 212.52C343.271 209.991 347.71 208.068 351.677 201.659C353.114 199.319 355.094 197.205 357.422 195.703C357.836 195.46 358.251 195.217 358.666 194.973C359.623 194.344 360.533 193.878 361.351 193.126C362.295 192.232 363.238 190.726 362.877 189.238C362.714 188.585 362.366 187.973 361.937 187.34C361.509 186.707 361.022 185.972 360.882 185.238C360.614 184.035 361.015 182.915 361.335 181.775C361.427 181.449 361.541 181.041 361.633 180.716C362.673 176.704 361.019 170.259 354.008 168.386L354.214 167.652C360.982 169.464 363.721 175.749 362.383 180.82C362.292 181.145 362.177 181.553 362.086 181.879C361.707 182.917 361.41 183.976 361.666 184.914C361.829 185.566 362.177 186.179 362.605 186.812C363.034 187.445 363.463 188.078 363.661 188.914C363.571 189.851 363.549 190.544 363.389 191.114Z" fill="#0C2340"/>
<path d="M318.833 236.846C316.136 238.428 315.432 238.773 314.729 239.117C314.026 239.462 313.323 239.806 310.649 241.307C296.853 249.401 285.442 256.095 274.677 262.342C269.41 265.364 265.854 265.069 260.348 264.626L260.105 264.564C252.486 263.932 246.261 266.972 239.805 270.215C235.77 272.242 231.551 274.309 226.995 275.417C223.938 276.122 221.514 276.116 219.504 275.254C216.084 273.859 214.158 269.615 212.29 265.473C209.621 259.555 207.103 254.026 200.597 255.597C197.724 256.262 195.595 258.6 193.488 260.856C193.131 261.202 192.751 261.629 192.394 261.974C190.207 264.21 187.823 266.221 185.184 267.905C183.812 268.778 182.175 269.67 180.49 269.502C177.488 269.086 176.175 265.435 176.178 262.032C176.227 258.465 176.946 254.982 177.561 251.56C177.972 249.483 178.428 247.242 178.677 245.123C179.412 239.113 178.662 234.383 176.426 230.933C174.306 227.687 171.164 226.537 167.86 225.346C166.047 224.709 164.256 223.991 162.534 223.029C158.373 220.572 155.28 215.856 154.308 210.371C153.15 203.703 154.403 196.778 157.714 191.774C161.429 186.261 167.577 184.423 173.539 182.626C174.197 182.444 174.958 182.202 175.615 182.02C182.731 179.818 187.151 174.572 191.718 168.491C195.457 163.509 200.031 159.873 204.332 158.438L204.576 159.111C200.459 160.506 195.99 164.081 192.377 168.921C187.683 175.144 183.183 180.37 175.859 182.693C175.202 182.875 174.441 183.117 173.783 183.299C167.924 185.036 161.881 186.812 158.373 192.203C155.107 197.045 153.923 203.726 155.128 210.23C156.087 215.45 159.041 220.044 163.063 222.378C164.785 223.34 166.495 224.038 168.309 224.675C171.693 225.886 174.997 227.077 177.233 230.528C179.608 234.101 180.393 239.014 179.612 245.187C179.34 247.387 178.907 249.546 178.473 251.705C177.777 255.107 177.139 258.61 177.032 262.075C177.017 265.213 178.098 268.456 180.673 268.851C182.093 269.038 183.626 268.207 184.894 267.395C187.452 265.69 189.813 263.76 191.92 261.504C192.277 261.159 192.657 260.732 193.014 260.386C195.224 258.069 197.458 255.67 200.514 254.965C207.574 253.273 210.359 259.394 213.051 265.23C214.884 269.189 216.752 273.331 219.929 274.664C221.778 275.485 224.121 275.471 226.993 274.806C231.469 273.677 235.584 271.671 239.619 269.644C245.948 266.543 252.508 263.239 260.369 263.933L260.612 263.995C266.118 264.438 269.489 264.773 274.468 261.852C285.233 255.605 296.644 248.911 310.44 240.817C313.137 239.235 313.84 238.891 314.543 238.546C315.246 238.202 315.95 237.857 318.624 236.356L318.833 236.846Z" fill="#0C2340"/>
<path d="M361.456 193.676C359.14 195.443 356.953 197.679 355.793 200.264C355.243 201.607 354.854 202.992 354.361 204.438C353.949 205.904 353.271 207.39 352.397 208.651C351.5 209.994 350.384 211.193 349.093 212.086C347.78 213.061 346.396 213.668 345.071 214.378C342.361 215.695 339.594 216.91 336.85 218.044C334.106 219.178 331.385 220.23 328.756 221.568C326.151 222.824 323.742 224.305 321.368 225.97C316.621 229.299 312.222 233.241 307.799 237.264C305.6 239.235 303.377 241.287 301.016 243.217C298.735 245.167 296.374 247.096 293.793 248.883C292.502 249.776 291.212 250.669 289.782 251.439C289.056 251.865 288.353 252.21 287.65 252.554C286.866 252.878 286.082 253.202 285.217 253.506C281.965 254.597 278.641 254.71 275.605 254.722C272.57 254.735 269.742 254.625 267.065 254.903C265.738 255.001 264.526 255.304 263.212 255.667C261.897 256.03 260.559 256.475 259.117 256.98C253.663 258.82 247.979 261.474 241.321 262.047C238.055 262.262 234.545 261.804 231.484 260.675C228.399 259.627 225.741 257.989 223.221 256.474C218.227 253.281 213.66 250.11 208.65 249.444C206.317 249.112 203.595 249.553 200.629 249.932C197.664 250.311 194.329 250.77 190.795 249.783C189.098 249.35 187.191 248.428 185.859 246.692C184.505 245.037 184.038 242.998 183.93 241.225C183.822 239.451 183.991 237.923 184.161 236.395L184.329 234.256L184.416 232.096C184.57 229.08 184.818 226.35 183.901 224.371C183.46 223.473 182.731 222.676 181.911 222.205C181.009 221.714 179.693 221.465 178.273 221.278C176.852 221.091 175.329 220.964 173.654 220.45C172.06 219.957 170.199 218.872 169.214 217.137C167.463 213.81 168.159 210.408 167.495 208.145C167.227 206.941 166.589 205.819 165.745 204.818C165.351 204.368 164.957 203.919 164.46 203.53C163.963 203.142 163.362 202.814 162.645 202.282C161.928 201.751 161.326 200.811 161.128 199.975C160.849 199.119 160.754 198.222 160.798 197.447C160.933 195.736 161.448 194.209 162.184 192.825C163.654 190.057 165.888 187.659 168.723 186.199C171.536 184.821 174.663 184.483 177.562 184.96L177.551 185.306C174.688 185.013 171.619 185.453 169.048 186.893C166.478 188.333 164.429 190.691 163.189 193.256C162.557 194.579 162.145 196.045 162.102 197.431C162.141 198.837 162.502 200.326 163.658 201.144C164.236 201.553 164.837 201.881 165.496 202.311C166.074 202.72 166.629 203.21 167.162 203.782C168.065 204.885 168.899 206.233 169.283 207.64C169.748 209.068 169.763 210.556 169.963 212.003C170.082 213.43 170.363 214.898 171.058 216.123C171.753 217.347 173.013 218.105 174.365 218.537C175.716 218.968 177.182 218.993 178.683 219.2C180.103 219.388 181.604 219.596 182.991 220.211C184.377 220.826 185.442 221.97 186.114 223.276C187.414 226.052 187.075 229.108 187.024 232.062C187.055 235.038 186.496 237.951 186.711 240.886C186.83 242.313 187.214 243.72 188.117 244.823C189.02 245.926 190.303 246.602 191.677 246.952C197.313 248.476 203.227 245.618 209.173 246.348C215.177 247.18 220.079 250.698 224.957 253.687C227.396 255.181 229.939 256.615 232.699 257.58C235.379 258.525 238.301 258.92 241.22 258.704C247.059 258.272 252.571 255.923 258.233 253.962C261.012 253.011 263.953 252.102 266.873 251.886C269.815 251.589 272.782 251.821 275.737 251.788C278.668 251.837 281.588 251.621 284.425 250.773C287.182 249.904 289.798 248.301 292.252 246.657C297.126 243.185 301.583 239.346 306.145 235.446C310.706 231.545 315.267 227.645 320.176 224.357C322.63 222.713 325.223 221.191 327.991 219.976C330.677 218.74 333.479 217.709 336.304 216.596C339.106 215.564 341.828 214.512 344.514 213.276C345.817 212.648 347.2 212.04 348.387 211.208C349.574 210.375 350.645 209.339 351.496 208.159C353.279 205.821 353.78 202.806 355.066 200.078C356.514 197.392 358.759 195.259 361.236 193.533L361.456 193.676Z" fill="#FFF666"/>
<path d="M218.395 150.936C213.642 151.82 208.773 152.499 203.983 152.588C199.171 152.758 194.253 152.378 189.541 151.265C187.174 150.749 184.921 149.826 182.635 149.33C180.348 148.835 177.982 148.93 175.629 149.291C173.275 149.651 170.875 150.174 168.406 150.331C165.913 150.568 163.419 150.195 161.052 149.679C158.685 149.163 156.386 148.402 154.077 147.988C151.79 147.493 149.435 147.242 147.139 147.704C144.844 148.167 142.711 149.282 141.053 150.867C139.314 152.431 137.888 154.425 136.704 156.48C135.52 158.535 134.556 160.733 133.569 163.013C132.604 165.211 131.617 167.491 130.468 169.73C129.343 171.887 127.87 174.043 126.086 175.771C124.278 177.579 122.1 178.857 119.886 179.952C117.754 181.067 115.482 182.059 113.466 183.378C111.53 184.718 109.768 186.364 108.665 188.44C108.125 189.437 107.805 190.577 107.75 191.698C107.695 192.819 107.905 193.92 108.404 194.92C109.401 196.92 111.309 198.453 113.114 200.048C114.004 200.886 114.918 201.642 115.682 202.623C116.446 203.603 117.107 204.644 117.456 205.868C118.258 208.254 118.16 210.761 117.924 213.145C117.266 217.952 116.1 222.718 115.465 227.444C114.83 232.171 114.657 237.102 115.88 241.691C116.44 244.016 117.392 246.178 118.655 248.159C119.917 250.139 121.618 251.794 123.595 253.084C125.595 254.291 127.893 255.052 130.111 255.792C132.433 256.47 134.754 257.149 136.88 258.215C139.007 259.28 141.099 260.774 142.42 262.856C143.081 263.897 143.511 265.142 143.698 266.324C143.863 267.588 143.785 268.79 143.603 270.053C143.026 274.882 142.207 279.648 142.611 284.377C142.801 286.783 143.28 289.087 144.174 291.148C145.125 293.311 146.411 295.209 148.158 296.702C148.99 297.438 150.031 298.052 151.059 298.401C151.625 298.546 152.145 298.853 152.653 298.895C152.895 298.957 153.219 299.039 153.461 299.101L154.292 299.225C156.567 299.456 158.943 299.014 161.204 298.368C165.829 297.015 170.117 294.704 174.788 293.188C179.481 291.591 184.315 290.728 189.174 290.395C194.032 290.062 198.927 290.523 203.684 291.474C206.052 291.99 208.373 292.669 210.672 293.429C212.948 294.271 215.178 295.275 217.281 296.422C219.488 297.509 221.442 298.879 223.465 300.006C225.487 301.132 227.682 301.953 229.899 302.082C232.115 302.21 234.456 301.585 236.508 300.449C238.537 299.395 240.438 297.872 242.119 296.205C245.504 292.791 248.137 288.661 251.591 285.002C252.454 284.087 253.375 283.275 254.32 282.381L255.092 281.792C255.322 281.588 255.633 281.406 255.84 281.284L257.442 280.208C259.598 279.012 261.892 277.938 264.256 277.231C268.927 275.716 273.796 275.036 278.526 274.234C283.257 273.432 288.01 272.548 292.449 270.624C293.025 270.422 293.544 270.118 294.063 269.813C294.581 269.509 295.158 269.307 295.676 269.003L297.174 267.988C297.405 267.784 297.693 267.683 297.923 267.48L298.614 266.871C300.434 265.327 301.861 263.334 303.206 261.32C305.758 257.169 307.929 252.834 310.181 248.52C311.307 246.363 312.514 244.226 313.859 242.213C315.205 240.199 316.631 238.205 318.358 236.376L318.497 236.499C316.874 238.267 315.447 240.26 314.16 242.376C312.872 244.492 311.769 246.568 310.62 248.807C308.45 253.141 306.417 257.599 303.842 261.831C302.555 263.947 301.047 265.92 299.182 267.626L298.491 268.236C298.26 268.439 297.949 268.622 297.742 268.743L296.221 269.84C295.702 270.144 295.103 270.428 294.584 270.732C294.065 271.036 293.466 271.32 292.97 271.543C288.405 273.609 283.629 274.574 278.795 275.437C274.042 276.321 269.253 277.021 264.663 278.557C262.38 279.285 260.189 280.297 258.115 281.515L256.617 282.529C256.386 282.733 256.098 282.834 255.868 283.037L255.2 283.565C254.301 284.296 253.438 285.211 252.597 286.044C249.351 289.581 246.718 293.711 243.183 297.349C241.398 299.077 239.452 300.763 237.135 301.918C234.899 303.094 232.35 303.841 229.787 303.712C227.202 303.664 224.81 302.618 222.706 301.471C220.522 300.303 218.649 298.953 216.523 297.888C214.5 296.761 212.328 295.859 210.052 295.017C207.835 294.277 205.617 293.537 203.25 293.021C198.596 292.01 193.863 291.59 189.108 291.862C184.353 292.134 179.623 292.936 175.033 294.473C170.466 295.927 166.155 298.32 161.369 299.632C159.027 300.257 156.466 300.739 153.949 300.447L153.037 300.302C152.714 300.22 152.39 300.137 152.148 300.075C151.501 299.911 150.958 299.685 150.392 299.541C149.225 299.069 148.208 298.373 147.213 297.596C145.328 295.981 143.926 293.878 142.998 291.634C142.069 289.389 141.555 286.902 141.445 284.517C141.168 279.645 142.01 274.797 142.668 269.99C142.827 268.808 142.905 267.606 142.798 266.444C142.692 265.282 142.297 264.221 141.717 263.201C140.535 261.241 138.604 259.789 136.478 258.723C132.306 256.613 127.249 256.11 123.134 253.49C121.077 252.18 119.399 250.443 118.055 248.442C116.711 246.441 115.783 244.197 115.246 241.791C114.046 237.121 114.138 232.169 114.795 227.361C115.136 224.916 115.534 222.574 115.955 220.15C116.377 217.726 116.856 215.404 117.173 213.041C117.41 210.657 117.404 208.211 116.637 206.008C115.87 203.805 114.169 202.15 112.445 200.576C110.722 199.002 108.71 197.529 107.516 195.304C106.959 194.202 106.633 192.897 106.653 191.593C106.673 190.289 107.12 189.006 107.683 187.927C108.854 185.607 110.662 183.799 112.805 182.337C114.845 180.937 117.139 179.863 119.272 178.748C121.404 177.633 123.479 176.416 125.16 174.749C126.841 173.083 128.186 171.069 129.289 168.993C131.599 164.781 132.927 160.056 135.525 155.743C136.812 153.627 138.261 151.552 140.208 149.866C141.129 149.053 142.212 148.282 143.331 147.694C144.449 147.106 145.683 146.722 146.975 146.441C149.513 146.04 151.972 146.23 154.339 146.746C156.707 147.262 159.028 147.941 161.292 148.518C163.578 149.013 165.888 149.427 168.276 149.25C170.665 149.073 173.042 148.631 175.476 148.292C177.911 147.952 180.438 147.898 182.805 148.414C185.173 148.93 187.426 149.853 189.689 150.43C194.297 151.604 199.088 152.126 203.878 152.038C208.668 151.949 213.491 151.432 218.302 150.651L218.395 150.936Z" fill="#0C2340"/>
<path d="M337.516 192.551L334.886 193.278C333.963 193.479 333.063 193.599 332.186 193.637C330.328 193.775 328.562 193.587 326.715 193.378C323.124 192.899 319.693 191.851 316.136 190.944L310.882 189.605L308.295 188.946C307.405 188.719 306.539 188.411 305.822 187.879C305.024 187.327 304.584 186.429 304.385 185.593C304.129 184.655 304.115 183.778 304.206 182.841C304.467 180.987 305.213 179.257 306.34 177.711C307.467 176.166 308.849 174.947 310.289 173.83C311.81 172.733 313.308 171.718 314.887 170.724C316.466 169.73 318.045 168.736 319.717 168.027C321.411 167.237 323.199 166.732 325.08 166.513C328.819 166.157 332.434 167.165 335.75 168.621C339.066 170.077 342.164 172.001 345.226 173.742C346.81 174.582 348.393 175.422 350.022 176.099C351.651 176.776 353.384 177.392 355.002 178.415C356.54 179.418 357.894 181.073 358.303 183.01C358.455 184.009 358.319 185.109 357.883 186.045C357.447 186.981 356.629 187.733 355.857 188.322C354.232 189.479 352.364 189.963 350.576 190.468L345.236 191.9L339.895 193.332C338.107 193.837 336.285 194.158 334.601 194.602C332.836 195.025 331.187 195.652 329.573 196.463C328.04 197.294 326.6 198.411 325.079 199.508C323.639 200.625 322.095 201.802 320.458 202.695C318.822 203.587 317.046 204.356 315.258 204.861C311.763 205.891 308.246 207.002 304.635 207.828C301.025 208.653 297.46 209.316 293.802 209.693C290.144 210.07 286.497 210.101 282.861 209.786C279.224 209.47 275.633 208.991 272.099 208.003C268.588 206.934 265.237 205.295 262.565 202.781C261.28 201.493 260.123 200.063 259.276 198.451C258.43 196.839 257.814 195.023 257.625 193.229C257.355 191.415 257.639 189.48 258.223 187.708C258.807 185.937 259.877 184.289 260.981 182.825C263.19 179.896 265.78 177.152 268.683 174.837C271.644 172.623 275.022 170.778 278.702 170.319C282.383 169.861 286.009 170.523 289.564 170.818C291.331 171.006 293.12 171.113 294.978 170.975C296.755 170.817 298.543 170.313 300.215 169.604C301.887 168.895 303.523 168.003 305.137 167.192C306.832 166.402 308.585 165.714 310.327 165.372C313.937 164.547 317.619 164.699 321.268 165.28C324.836 165.84 328.37 166.828 331.778 167.958C338.593 170.219 345.316 172.805 351.776 176.022C353.359 176.862 354.874 177.946 356.158 179.234C356.749 179.908 357.316 180.663 357.78 181.48C358.243 182.296 358.396 183.295 358.386 184.253C358.377 185.211 358.103 186.188 357.608 187.023C357.114 187.857 356.4 188.548 355.628 189.137C354.084 190.314 352.274 190.9 350.544 191.507C348.756 192.012 347.014 192.353 345.226 192.858C343.462 193.281 341.755 193.806 339.967 194.311C336.449 195.422 333.07 196.656 329.727 198.073C326.383 199.491 323.016 200.99 319.847 202.713C316.596 204.416 313.461 206.323 310.604 208.476C309.936 209.004 309.384 209.736 308.831 210.468C308.198 211.18 307.484 211.871 306.712 212.459C305.192 213.556 303.555 214.448 302.057 215.463L292.884 221.592C289.807 223.601 286.789 225.713 283.573 227.599C280.357 229.486 276.91 230.964 273.218 231.769C265.916 233.4 258.32 232.686 251.378 230.568C244.356 228.429 237.988 224.886 231.873 221.058C228.856 219.155 225.884 217.088 222.913 215.022C221.479 213.958 219.988 212.793 218.726 211.424C217.465 210.055 216.457 208.401 215.841 206.586C214.505 203.016 214.565 199.103 215.41 195.478C215.833 193.665 216.521 191.833 217.348 190.123C218.174 188.414 219.221 186.847 220.348 185.302C222.661 182.312 225.39 179.691 228.212 177.355C231.057 174.937 234.076 172.826 237.037 170.613C240.056 168.502 243.156 166.411 246.487 164.729C249.819 163.046 253.324 161.67 256.877 160.742C260.452 159.733 264.098 159.091 267.698 158.612C271.321 158.051 274.955 157.755 278.648 157.562C285.953 157.154 293.214 157.52 300.418 158.396C314.781 160.31 328.803 164.669 341.447 171.469C344.613 173.149 347.711 175.073 350.751 176.896C352.311 177.817 353.745 178.881 355.029 180.168C355.62 180.842 356.187 181.598 356.57 182.394C356.953 183.189 357.209 184.128 357.119 185.065C357.029 186.002 356.512 186.918 355.821 187.527C355.129 188.137 354.3 188.623 353.493 189.029C351.821 189.738 349.975 190.14 348.152 190.461C346.329 190.782 344.552 190.94 342.707 191.343C341.033 191.44 339.304 192.047 337.516 192.551ZM337.481 192.368C339.188 191.843 340.917 191.236 342.763 190.834C344.586 190.513 346.386 190.273 348.128 189.931C349.951 189.61 351.693 189.268 353.387 188.478C354.194 188.073 355.001 187.668 355.692 187.058C356.383 186.449 356.797 185.594 356.945 184.759C357.012 183.903 356.837 182.985 356.454 182.189C356.071 181.394 355.585 180.659 354.971 180.066C353.768 178.799 352.231 177.796 350.751 176.896C349.191 175.974 347.734 174.992 346.151 174.152C344.59 173.231 343.007 172.391 341.424 171.551C328.712 164.995 314.748 160.738 300.397 159.089C293.274 158.234 285.967 158.03 278.743 158.459C275.131 158.673 271.554 159.071 267.931 159.631C264.308 160.192 260.824 160.876 257.352 161.824C253.881 162.772 250.479 164.088 247.309 165.811C244.058 167.514 241.005 169.442 238.066 171.574C235.128 173.705 232.087 175.898 229.345 178.255C226.523 180.59 223.921 183.07 221.712 185.998C220.607 187.463 219.665 188.968 218.884 190.515C218.08 192.143 217.518 193.833 217.141 195.483C216.342 198.945 216.373 202.532 217.535 205.796C218.117 207.428 219.009 208.877 220.131 210.123C221.254 211.369 222.665 212.515 224.121 213.497C227.012 215.543 230.006 217.528 233 219.513C239.011 223.401 245.241 226.822 252.102 228.919C258.882 230.996 266.212 231.729 273.226 230.2C276.733 229.435 280.077 228.018 283.189 226.192C286.381 224.387 289.4 222.276 292.477 220.267L301.65 214.137C303.148 213.122 304.784 212.23 306.224 211.113C306.973 210.606 307.584 209.976 308.194 209.345C308.804 208.715 309.379 207.902 310.151 207.313C316.177 202.825 322.852 199.726 329.643 196.83C333.068 195.433 336.527 194.22 340.045 193.109C341.832 192.604 343.539 192.079 345.304 191.656C347.069 191.233 348.915 190.83 350.599 190.386C352.306 189.861 354.036 189.255 355.453 188.219C356.202 187.712 356.812 187.081 357.203 186.308C357.674 185.555 357.903 184.741 357.889 183.864C358.024 182.153 357.073 180.602 355.87 179.335C354.667 178.068 353.21 177.086 351.65 176.164C345.271 172.968 338.57 170.3 331.755 168.04C328.347 166.909 324.894 165.942 321.349 165.301C317.781 164.741 314.18 164.608 310.592 165.353C308.827 165.776 307.097 166.382 305.483 167.193C303.87 168.004 302.233 168.896 300.561 169.605C298.866 170.395 297.078 170.9 295.22 171.037C293.363 171.175 291.573 171.068 289.703 170.941C286.09 170.543 282.522 169.983 278.922 170.463C275.322 170.942 272.049 172.726 269.168 174.96C266.288 177.194 263.86 179.979 261.651 182.908C260.546 184.372 259.662 185.98 259.1 187.67C258.539 189.36 258.381 191.153 258.593 192.865C258.805 194.578 259.363 196.291 260.233 197.822C261.021 199.332 262.179 200.762 263.405 201.947C265.939 204.339 269.232 205.876 272.604 206.823C276.058 207.79 279.567 208.248 283.146 208.462C286.724 208.675 290.372 208.644 293.926 208.328C297.48 208.012 301.045 207.349 304.574 206.503C308.104 205.656 311.599 204.627 315.094 203.597C316.8 203.072 318.449 202.444 320.005 201.532C321.561 200.619 322.978 199.583 324.418 198.466C325.859 197.35 327.402 196.172 329.12 195.3C330.838 194.429 332.567 193.822 334.436 193.338C336.224 192.833 338.047 192.512 339.811 192.089L345.129 190.738L350.447 189.387C352.211 188.964 353.941 188.358 355.335 187.404C356.004 186.875 356.591 186.327 356.959 185.635C357.326 184.943 357.474 184.108 357.334 183.374C357.076 181.824 355.942 180.313 354.543 179.433C353.167 178.471 351.434 177.855 349.805 177.178C348.095 176.481 346.512 175.641 344.952 174.719C341.808 172.958 338.814 170.973 335.579 169.538C332.344 168.102 328.809 167.114 325.278 167.349C323.501 167.507 321.736 167.931 320.122 168.741C318.45 169.45 316.894 170.363 315.316 171.357C312.262 173.285 308.942 175.232 306.756 178.079C305.652 179.544 304.848 181.172 304.61 182.944C304.543 183.8 304.533 184.758 304.732 185.594C304.93 186.43 305.393 187.246 306.029 187.758C306.746 188.289 307.636 188.516 308.421 188.804L311.008 189.463L316.263 190.802C319.739 191.688 323.17 192.736 326.737 193.296C328.481 193.566 330.351 193.694 332.105 193.617C332.982 193.578 333.882 193.459 334.805 193.257L337.481 192.368Z" fill="#0C2340"/>
<path d="M378.701 184.716C375.765 187.459 372.932 190.142 370.273 193.13C368.984 194.635 367.695 196.139 366.567 197.685C365.417 199.312 364.429 200.981 363.44 202.649C361.44 206.067 359.44 209.486 356.781 212.474C354.122 215.463 351.07 218.002 348.075 220.643C342.132 225.762 337.057 231.801 332.12 237.963L317.068 256.385C312.073 262.445 307.172 268.79 300.963 273.929C297.911 276.468 294.419 278.72 290.625 280.197C286.809 281.756 282.84 282.316 279.102 283.284C277.234 283.768 275.446 284.273 273.648 285.124C271.953 285.914 270.293 286.887 268.749 288.065C265.685 290.339 262.91 293.124 260.193 296.01C257.476 298.897 254.759 301.783 251.684 304.404C250.117 305.663 248.47 306.901 246.706 307.936C244.943 308.971 243.006 309.699 241.033 310.244C237.031 311.231 233.002 311.078 229.065 310.598C225.128 310.119 221.364 309.334 217.588 308.896C209.957 307.998 202.109 308.181 194.471 309.464C190.664 310.065 186.846 311.012 183.028 311.96C179.233 312.826 175.357 313.671 171.433 314.068C167.487 314.546 163.517 314.495 159.684 313.954C157.778 313.643 155.815 313.23 153.979 312.675C152.142 312.12 150.225 311.544 148.411 310.907C144.784 309.634 141.168 308.014 137.827 306.028C134.51 303.96 131.468 301.527 129.037 298.463C127.822 296.932 126.71 295.339 125.805 293.625C124.901 291.91 124.204 290.074 123.507 288.238C122.09 284.647 120.466 281.178 118.323 278.014C117.292 276.442 116.053 274.991 114.688 273.683C113.346 272.294 111.854 271.128 110.386 269.881C108.917 268.634 107.471 267.305 106.278 265.692C105.085 264.079 104.285 262.303 103.588 260.467C102.194 256.795 101.354 253.002 99.8103 249.554C98.2898 246.024 96.3543 242.738 94.5684 239.228C92.8404 235.82 91.1811 232.167 90.4675 228.232C90.0589 226.295 90.0194 224.277 90.2453 222.24C90.4712 220.202 91.0205 218.247 91.7086 216.415C93.1076 212.669 95.0497 209.149 96.6455 205.628C98.2413 202.106 99.2132 198.339 99.8618 194.489C100.51 190.639 100.997 186.748 101.565 182.877C102.214 179.027 103.07 175.055 104.653 171.269C105.445 169.376 106.457 167.626 107.711 165.938C108.964 164.25 110.415 162.787 111.924 161.425C113.513 160.085 115.138 158.928 116.763 157.77L121.694 154.401L131.454 147.723L136.386 144.353C137.988 143.278 139.612 142.12 141.399 141.004C143.162 139.97 145.064 139.058 147.175 138.636C149.287 138.214 151.422 138.321 153.385 138.734C157.357 139.397 160.939 140.834 164.679 141.088C168.338 141.323 172.156 140.375 176.253 140.285C178.273 140.188 180.386 140.377 182.361 141.055C184.359 141.652 186.081 142.614 187.803 143.577C189.525 144.54 191.144 145.563 192.831 146.342C193.651 146.813 194.518 147.121 195.361 147.511C196.227 147.819 197.071 148.208 198.041 148.455C201.61 149.627 205.398 150.33 209.161 150.503C212.924 150.677 216.824 150.361 220.516 149.556C224.265 148.853 227.781 147.131 231.784 146.143C233.756 145.598 235.822 145.339 237.876 145.426C239.931 145.513 241.917 145.845 243.822 146.156L246.72 146.632C247.124 146.735 247.713 146.798 248.198 146.922C248.683 147.045 249.168 147.169 249.711 147.394C251.606 148.052 253.328 149.014 255.061 149.63C255.927 149.939 256.816 150.165 257.648 150.29L259.068 150.477L260.511 150.583C262.404 150.629 264.32 150.593 266.2 150.374C270.02 150.038 273.838 149.091 277.575 148.123C285.073 146.105 292.73 143.518 300.728 143.112C304.686 142.898 308.75 143.236 312.538 144.55C316.327 145.865 319.645 147.932 322.904 149.898C326.141 151.945 329.539 154.033 332.282 156.914C333.624 158.303 334.885 159.672 336.377 160.838C337.869 162.003 339.383 163.088 341.07 163.867C342.757 164.646 344.594 165.201 346.453 165.675C348.313 166.149 350.172 166.623 352.089 167.198C355.74 168.39 359.527 169.094 363.304 170.143C365.163 170.617 367.08 171.193 368.894 171.83C370.708 172.467 372.579 173.205 374.152 174.392C374.591 174.678 374.927 175.026 375.239 175.454C375.552 175.883 375.784 176.291 376.016 176.7C376.56 177.537 377.127 178.292 377.591 179.109C378.357 180.7 379.192 182.659 378.701 184.716ZM378.482 184.573C378.596 184.166 378.572 183.636 378.524 183.187C378.477 182.739 378.349 182.27 378.221 181.801C377.965 180.862 377.501 180.046 376.957 179.209C376.493 178.392 375.845 177.616 375.358 176.881C375.126 176.473 374.814 176.044 374.559 175.717C374.304 175.391 373.969 175.043 373.529 174.757C372.015 173.673 370.12 173.015 368.388 172.399C366.574 171.762 364.715 171.288 362.855 170.815C360.996 170.341 359.114 169.948 357.15 169.536C356.18 169.288 355.268 169.143 354.298 168.896L351.491 168.093C349.632 167.62 347.773 167.146 345.832 166.651C343.973 166.178 342.056 165.602 340.265 164.884C338.416 164.063 336.798 163.04 335.248 161.772C333.699 160.504 332.356 159.115 330.991 157.807C328.365 155.13 325.105 153.165 321.765 151.179C318.505 149.213 315.165 147.227 311.596 146.056C308.026 144.884 304.228 144.528 300.409 144.864C296.612 145.118 292.759 145.882 289.022 146.85C285.284 147.818 281.479 149.03 277.718 150.08C273.877 151.109 270.059 152.056 266.032 152.514C264.071 152.712 262.051 152.808 260.077 152.742L258.554 152.615L257.053 152.408C256.037 152.323 255.009 151.974 254.061 151.645C252.167 150.988 250.422 150.107 248.689 149.491C248.285 149.388 247.823 149.183 247.419 149.08C247.014 148.977 246.61 148.874 246.102 148.832C245.109 148.666 244.197 148.521 243.204 148.355C241.299 148.044 239.394 147.733 237.605 147.626C235.712 147.58 233.912 147.82 232.147 148.243C228.513 149.15 224.835 150.832 220.879 151.656C216.98 152.583 212.918 152.857 208.889 152.704C204.884 152.468 200.912 151.805 197.203 150.511C193.45 149.38 189.844 147.414 186.584 145.449C184.943 144.507 183.279 143.646 181.523 143.111C179.768 142.577 178.001 142.389 176.166 142.445C172.415 142.536 168.516 143.463 164.43 143.207C160.286 142.849 156.623 141.393 152.975 140.812C151.173 140.44 149.28 140.394 147.538 140.736C145.796 141.078 144.102 141.868 142.442 142.841C140.782 143.815 139.158 144.972 137.556 146.048L132.647 149.336L122.806 155.994C119.58 158.226 116.215 160.337 113.266 162.815C111.803 164.013 110.456 165.416 109.329 166.962C108.201 168.507 107.236 170.094 106.467 171.906C104.952 175.448 104.084 179.155 103.435 183.004C102.787 186.854 102.3 190.746 101.57 194.575C100.818 198.486 99.8231 202.335 98.1815 206.019C96.5399 209.703 94.5628 213.04 93.1866 216.705C92.4985 218.537 91.995 220.329 91.8149 222.203C91.3922 224.016 91.4546 225.952 91.8053 227.787C92.403 231.518 94.0043 235.069 95.6515 238.456C97.3794 241.864 99.2691 245.314 100.79 248.843C102.368 252.475 103.105 256.329 104.44 259.899C105.057 261.715 105.88 263.408 107.015 264.92C108.069 266.41 109.515 267.739 110.984 268.986C112.452 270.233 113.921 271.48 115.263 272.87C116.606 274.259 117.925 275.73 118.933 277.384C121.157 280.569 122.758 284.119 124.152 287.792C124.849 289.628 125.488 291.362 126.393 293.076C127.297 294.79 128.328 296.362 129.566 297.813C131.94 300.774 134.981 303.208 138.218 305.255C141.477 307.22 145.036 308.738 148.663 310.011C152.313 311.203 156.044 312.416 159.774 313.017C163.607 313.557 167.497 313.588 171.281 313.069C175.146 312.57 178.942 311.704 182.76 310.757C186.578 309.809 190.338 308.76 194.249 308.098C201.99 306.754 209.965 306.429 217.804 307.205C221.683 307.582 225.551 308.306 229.326 308.744C233.101 309.183 236.991 309.214 240.625 308.307C242.493 307.823 244.165 307.114 245.825 306.14C247.484 305.167 249.005 304.07 250.491 302.79C253.44 300.312 256.076 297.405 258.793 294.519C261.51 291.632 264.307 288.766 267.602 286.289C269.25 285.05 271.013 284.016 272.893 283.185C274.772 282.355 276.744 281.81 278.636 281.245C282.535 280.318 286.342 279.717 289.928 278.361C293.515 277.006 296.799 274.875 299.748 272.397C305.807 267.481 310.685 261.218 315.761 255.179L330.929 236.961C336.004 230.922 341.183 224.822 347.311 219.663C350.283 217.103 353.335 214.564 356.029 211.759C358.723 208.954 360.723 205.536 362.804 202.138C363.873 200.49 364.885 198.74 366.093 197.215C367.243 195.588 368.532 194.083 369.902 192.599C372.573 189.876 375.591 187.153 378.482 184.573Z" fill="#0C2340"/>
<path d="M345.183 222.612C343.238 224.909 340.877 226.839 338.145 228.238C335.413 229.636 332.517 230.383 329.738 231.333C326.959 232.283 324.215 233.417 321.621 234.938C319.109 236.48 316.77 238.328 314.49 240.278C312.209 242.229 310.068 244.301 308.423 246.763C306.778 249.224 305.735 252.013 304.449 254.741C303.817 256.064 303.082 257.447 302.208 258.709C301.334 259.97 300.321 261.108 299.146 262.205C297.994 263.221 296.785 264.135 295.355 264.906C293.949 265.595 292.449 265.998 290.915 266.218C287.904 266.76 285.03 266.813 282.135 267.559C279.343 268.245 276.518 269.358 273.774 270.492L265.46 273.872L261.356 275.532C259.995 276.058 258.692 276.686 257.505 277.519C255.155 279.102 253.568 281.665 251.843 284.106C250.969 285.367 250.037 286.526 248.943 287.644C247.849 288.762 246.558 289.655 245.152 290.344C242.258 291.702 239.131 292.04 236.106 291.705C233.059 291.453 230.217 290.467 227.525 289.257C224.833 288.047 222.313 286.532 219.77 285.098C217.228 283.665 214.662 282.313 212.028 281.205C206.701 278.888 201.111 277.201 195.315 276.248C192.417 275.771 189.496 275.376 186.587 275.246C183.701 275.034 180.7 275.23 177.698 274.814C176.197 274.606 174.719 274.317 173.333 273.701C171.946 273.086 170.709 272.247 169.726 271.124C168.742 270 168.092 268.613 167.523 267.246C166.954 265.879 166.57 264.471 166.001 263.104C165.432 261.737 164.737 260.513 163.707 259.552C162.678 258.591 161.395 257.915 160.021 257.565C157.168 256.926 154.238 257.488 151.308 258.051C149.854 258.291 148.377 258.613 146.947 258.773C145.435 258.911 143.946 258.968 142.503 258.862C140.979 258.736 139.501 258.446 138.196 257.852C136.809 257.237 135.572 256.398 134.588 255.274C132.621 253.027 131.633 250.069 131.441 247.053C131.145 244.097 131.565 241.061 132.285 238.19C133.644 232.426 135.835 226.787 136.202 220.858C136.546 215.01 135.423 209.137 132.687 204.076C132.015 202.769 131.215 201.606 130.312 200.503C129.41 199.4 128.449 198.195 127.695 196.868C126.942 195.541 126.522 193.95 126.507 192.463C126.411 190.954 126.684 189.366 127.016 187.879C127.84 184.946 129.229 182.158 130.978 179.636C131.403 179.046 131.852 178.375 132.439 177.826C132.946 177.257 133.452 176.688 134.039 176.139C135.191 175.123 136.424 174.128 137.772 173.337C140.388 171.734 143.271 170.723 146.154 169.712C149.014 168.782 151.794 167.832 154.48 166.596C155.783 165.968 157.108 165.258 158.573 164.671C160.037 164.084 161.594 163.783 163.164 163.747C166.303 163.674 169.214 164.415 172.066 165.055C173.521 165.426 174.918 165.694 176.316 165.963C177.736 166.15 179.179 166.256 180.564 166.26C183.438 166.207 186.322 165.807 189.136 165.04C194.765 163.507 200.045 160.75 205.231 157.707C207.824 156.186 210.279 154.542 212.953 153.041C215.627 151.54 218.336 150.223 221.138 149.191C226.766 147.046 232.834 145.8 238.836 146.02C241.848 146.089 244.805 146.668 247.692 147.491C250.557 148.396 253.295 149.442 255.997 150.306C258.781 151.19 261.576 151.727 264.472 151.592C267.369 151.458 270.241 150.793 273.114 150.128L290.544 146.365C293.475 145.803 296.37 145.056 299.277 144.575C302.185 144.094 305.289 143.838 308.21 144.233C311.154 144.547 314.122 145.39 316.814 146.6C319.506 147.81 321.957 149.569 324.178 151.532C326.399 153.494 328.412 155.579 330.575 157.439C331.686 158.42 332.819 159.32 333.998 160.057C335.258 160.814 336.541 161.49 337.846 162.085C343.15 164.484 348.958 165.702 354.193 168.346L354.147 168.508C348.89 165.947 343.035 164.891 337.628 162.553C336.322 161.959 334.936 161.343 333.699 160.504C332.439 159.747 331.306 158.847 330.172 157.947C327.929 156.066 325.915 153.982 323.672 152.101C321.509 150.241 319.116 148.583 316.504 147.394C313.893 146.205 311.064 145.484 308.201 145.191C302.416 144.502 296.638 146.26 290.836 147.487L273.44 151.434C270.568 152.098 267.592 152.824 264.591 153.019C261.51 153.194 258.45 152.676 255.666 151.792C252.779 150.969 250.041 149.923 247.338 149.059C244.554 148.175 241.737 147.719 238.828 147.589C233.091 147.349 227.208 148.556 221.684 150.64C218.963 151.692 216.277 152.928 213.706 154.368C211.136 155.808 208.659 157.533 206.065 159.054C200.879 162.097 195.473 164.997 189.579 166.55C186.661 167.377 183.591 167.817 180.637 167.85C179.148 167.907 177.624 167.78 176.146 167.491C174.645 167.283 173.19 166.912 171.816 166.562C168.963 165.923 166.134 165.202 163.341 165.275C161.933 165.353 160.56 165.614 159.199 166.14C157.839 166.667 156.594 167.397 155.21 168.004C149.63 170.598 143.735 171.539 138.652 174.521C137.407 175.252 136.198 176.165 135.15 177.12C134.666 177.608 134.079 178.157 133.676 178.665C133.17 179.234 132.767 179.743 132.318 180.414C130.616 182.773 129.249 185.48 128.471 188.25C127.693 191.019 127.619 194.055 128.929 196.484C129.625 197.709 130.528 198.812 131.408 199.996C132.288 201.181 133.145 202.447 133.818 203.753C136.589 208.998 137.642 215.114 137.276 221.044C136.886 227.055 134.615 232.673 133.174 238.416C132.454 241.288 132.057 244.242 132.295 247.096C132.533 249.949 133.44 252.887 135.35 255.032C136.275 256.053 137.49 256.974 138.818 257.487C140.124 258.081 141.521 258.35 143.045 258.477C144.488 258.582 145.977 258.525 147.407 258.366C148.838 258.207 150.315 257.885 151.768 257.644C153.222 257.404 154.699 257.082 156.21 256.943C157.722 256.805 159.188 256.829 160.666 257.119C162.144 257.408 163.485 258.186 164.572 259.249C165.66 260.311 166.413 261.638 167.005 262.924C167.574 264.291 168.039 265.719 168.527 267.065C169.015 268.411 169.688 269.717 170.59 270.82C172.5 272.965 175.342 273.951 178.205 274.245C181.068 274.538 184.045 274.424 187.035 274.575C190.025 274.725 192.969 275.039 195.867 275.516C201.663 276.469 207.438 278.115 212.868 280.372C215.583 281.5 218.253 282.791 220.795 284.225C223.338 285.658 225.881 287.092 228.515 288.2C231.126 289.389 233.91 290.273 236.796 290.485C239.659 290.778 242.544 290.378 245.126 289.203C246.429 288.575 247.535 287.722 248.583 286.767C249.573 285.71 250.505 284.551 251.356 283.371C252.207 282.192 253.082 280.93 254.037 279.69C254.992 278.449 256.085 277.331 257.457 276.459C258.747 275.566 260.212 274.979 261.595 274.371L265.781 272.732L274.072 269.433C276.816 268.299 279.641 267.186 282.594 266.542C285.57 265.816 288.548 265.702 291.455 265.221C292.909 264.98 294.304 264.638 295.526 263.989C296.829 263.361 298.016 262.528 299.087 261.492C300.135 260.537 301.148 259.399 301.999 258.219C302.85 257.039 303.562 255.737 304.194 254.414C305.538 251.789 306.605 248.918 308.353 246.396C310.101 243.874 312.347 241.74 314.627 239.79C316.989 237.86 319.327 236.012 321.92 234.491C324.514 232.969 327.339 231.856 330.199 230.926C333.059 229.997 335.931 229.332 338.64 228.015C341.327 226.779 343.688 224.85 345.633 222.552L345.183 222.612Z" fill="#0C2340"/>
</svg>
